<svg width="393" height="150" viewBox="0 0 393 150" fill="none" xmlns="http://www.w3.org/2000/svg">
<path d="M39.736 64.8184C39.7172 64.8491 39.6738 64.8859 39.6056 64.9286C39.0206 65.1625 38.3019 65.3044 37.4496 65.3543C36.6126 65.4136 35.8716 65.4365 35.2264 65.423L32.2913 70.2426C31.9917 70.7346 31.6644 71.2202 31.3093 71.6994C30.9696 72.188 30.5918 72.6007 30.1759 72.9376C29.7694 73.259 29.3021 73.4381 28.774 73.4747C28.2612 73.5208 27.682 73.3472 27.0363 72.9539C26.6058 72.6918 26.2443 72.2819 25.9516 71.7243C25.6495 71.1821 25.4043 70.685 25.2159 70.2331C25.2039 70.1836 25.1842 70.1294 25.1568 70.0706C25.1294 70.0118 25.125 69.967 25.1438 69.9362C25.1718 69.8901 25.2136 69.8734 25.2691 69.8861C25.34 69.9082 25.3908 69.9286 25.4215 69.9473C25.6521 70.0878 25.8687 70.2512 26.0712 70.4378C26.2891 70.6337 26.521 70.8066 26.767 70.9564C27.3051 71.2841 27.7596 71.4028 28.1307 71.3127C28.5017 71.2225 28.8226 71.007 29.0935 70.6661C29.389 70.3192 29.6679 69.9305 29.93 69.5001L32.5281 65.2339C31.871 65.1709 31.2078 65.0832 30.5387 64.9708C29.8849 64.8677 29.2375 64.7368 28.5964 64.5783L28.631 62.1336C29.4566 62.4045 30.2761 62.6507 31.0896 62.8721C31.9032 63.0936 32.7307 63.292 33.5723 63.4673L36.1142 59.2934L32.6321 57.1728L33.1658 56.2965L36.6479 58.4171C37.1006 57.6391 37.5611 56.8657 38.0292 56.097C38.5067 55.313 38.9748 54.5443 39.4336 53.791L41.509 55.0549C41.0502 55.8082 40.5821 56.5769 40.1046 57.361C39.6519 58.139 39.1914 58.9123 38.7233 59.681L39.738 60.2989C39.9159 60.0068 40.1549 59.8047 40.4551 59.6924C40.7706 59.5896 41.0745 59.6271 41.3665 59.8049C41.6433 59.9735 41.8207 60.2185 41.8989 60.5401C41.9864 60.8463 41.9458 61.1377 41.7773 61.4145C41.6088 61.6912 41.3761 61.8656 41.0793 61.9377C40.7825 62.0099 40.488 61.957 40.1959 61.7791L38.1897 60.5573L36.055 64.0625C36.6286 64.1589 37.2068 64.2476 37.7897 64.3286C38.3726 64.4096 38.9526 64.4783 39.5295 64.5345C39.5789 64.5225 39.6267 64.5305 39.6729 64.5586C39.7805 64.6242 39.8015 64.7107 39.736 64.8184ZM55.9892 66.9397C55.8019 67.2472 55.5415 67.4153 55.2079 67.444C54.899 67.4666 54.5986 67.389 54.3065 67.2111L50.663 64.9922L42.953 77.6523C42.644 78.1597 42.3214 78.6376 41.985 79.0861C41.6487 79.5345 41.2836 79.8918 40.8898 80.1578C40.4866 80.4391 40.035 80.575 39.535 80.5656C39.0409 80.5808 38.4711 80.3919 37.8254 79.9986C37.5333 79.8208 37.2235 79.5162 36.896 79.0849C36.5686 78.6537 36.2722 78.1887 36.0069 77.6899C35.7323 77.2065 35.5311 76.8101 35.4035 76.5005C35.3146 76.4042 35.2983 76.31 35.3544 76.2177C35.3825 76.1716 35.4427 76.1766 35.5349 76.2328C35.5964 76.2702 35.6379 76.306 35.6592 76.3401C35.9754 76.617 36.2885 76.8814 36.5987 77.1335C36.9242 77.395 37.2637 77.6334 37.6173 77.8487C37.771 77.9423 37.9294 78.0283 38.0925 78.1065C38.2556 78.1848 38.4328 78.2399 38.624 78.2721C38.9047 78.2955 39.1708 78.2047 39.4222 77.9995C39.6736 77.7943 39.896 77.5504 40.0892 77.2676C40.2918 76.9695 40.454 76.7206 40.5757 76.5207L48.4261 63.63L42.9378 60.2876L43.5135 59.3421L53.7984 65.6056C53.9857 65.2981 54.2541 65.0823 54.6038 64.958C54.9534 64.8337 55.282 64.8652 55.5895 65.0525C55.9431 65.2678 56.1496 65.5516 56.209 65.904C56.2778 66.2409 56.2045 66.5862 55.9892 66.9397Z" fill="white"/>
<path d="M67.7312 75.1315C67.7867 75.0184 67.7331 74.8619 67.5706 74.6619C67.4159 74.4457 67.3061 74.3017 67.2412 74.2297C67.1192 74.0697 67.0011 73.9016 66.887 73.7253C66.773 73.5491 66.6468 73.377 66.5087 73.2091C66.2127 73.4448 65.9171 73.741 65.6221 74.0975C65.327 74.454 65.0761 74.8021 64.8695 75.1418C64.9823 75.157 65.1797 75.1837 65.4618 75.2217C65.7438 75.2598 66.05 75.2896 66.3802 75.3111C66.7183 75.3166 67.0121 75.3102 67.2615 75.2922C67.535 75.2659 67.6916 75.2124 67.7312 75.1315ZM70.9885 88.6665C70.5051 89.6524 69.8751 90.406 69.0983 90.9272C68.3215 91.4485 67.4507 91.7934 66.486 91.9619C65.5293 92.1143 64.5272 92.1342 63.4798 92.0216C62.4245 91.9252 61.3684 91.7282 60.3115 91.4305C59.2629 91.157 58.2701 90.8306 57.3334 90.4515C56.3887 90.0886 55.5446 89.7249 54.8012 89.3604C54.7365 89.3287 54.6597 89.281 54.5706 89.2173C54.4816 89.1536 54.4568 89.0813 54.4965 89.0005C54.5361 88.9197 54.6083 88.895 54.7132 88.9264C54.8343 88.9657 54.923 88.9891 54.9794 88.9968C55.3426 89.1147 55.8148 89.276 56.396 89.4808C56.9693 89.7017 57.518 89.8705 58.0422 89.9872C58.889 90.1818 59.7956 90.3156 60.7622 90.3886C61.745 90.4694 62.7027 90.4378 63.6354 90.2937C64.5842 90.1575 65.4432 89.8569 66.2124 89.3921C66.9977 88.9351 67.6162 88.246 68.0679 87.3248C68.4879 86.4682 68.5904 85.6866 68.3756 84.9798C68.1849 84.2649 67.6532 83.6934 66.7804 83.2655C66.0854 82.9248 65.3196 82.7899 64.483 82.8608C63.6704 82.9235 62.9233 83.1185 62.2416 83.4459C61.9769 83.5767 61.6565 83.7805 61.2803 84.0571C60.9282 84.3255 60.5924 84.622 60.273 84.9465C59.9614 85.2548 59.7383 85.5464 59.6036 85.8211C59.4926 86.0474 59.2965 86.1817 59.015 86.2242C58.7498 86.2746 58.5121 86.2482 58.302 86.1452C57.8333 85.9154 57.5047 85.5839 57.3161 85.1507C57.1517 84.7092 57.0917 84.2388 57.1361 83.7393C57.1966 83.2478 57.326 82.8 57.5241 82.3959C57.6905 82.0565 57.8852 81.7411 58.1084 81.4495C58.3556 81.1497 58.5907 80.8541 58.8139 80.5625C59.3159 79.9066 59.8059 79.2547 60.2838 78.607C60.7859 77.951 61.2798 77.291 61.7657 76.6271C61.6526 76.5717 61.5274 76.5203 61.3902 76.4731C61.2609 76.4097 61.1316 76.3463 61.0023 76.2829C60.2103 75.8946 59.6304 75.3397 59.2625 74.6181C58.9108 73.9043 58.7115 73.125 58.6647 72.2801C58.6634 72.1192 58.6744 71.9742 58.6975 71.8452C58.7286 71.7 58.7558 71.5831 58.7793 71.4944L58.9 71.4934C58.9333 71.63 58.9789 71.8027 59.0369 72.0116C59.1028 72.2043 59.1562 72.3407 59.1971 72.4209C59.385 72.7736 59.641 73.0896 59.9652 73.3688C60.2973 73.6319 60.6331 73.8466 60.9725 74.013C61.3119 74.1794 61.659 74.3095 62.014 74.4034C62.3851 74.5051 62.7481 74.6029 63.103 74.6968C63.4136 74.2677 63.712 73.8226 63.9982 73.3615C64.3006 72.9083 64.5707 72.4393 64.8084 71.9545C64.9431 71.6797 65.0138 71.4537 65.0204 71.2766C65.0512 71.0912 64.9569 70.8746 64.7376 70.6267C64.705 70.5706 64.5998 70.499 64.422 70.4119C64.2521 70.3085 64.1831 70.2245 64.2148 70.1599C64.2623 70.0629 64.3181 69.99 64.3821 69.9412C64.7421 69.6567 65.1678 69.5245 65.659 69.5449C66.1663 69.5731 66.614 69.6823 67.0019 69.8725C67.3251 70.031 67.6011 70.3267 67.8299 70.7596C68.0587 71.1925 68.082 71.5948 67.8997 71.9665C67.8284 72.112 67.6607 72.2904 67.3967 72.5018C67.1406 72.697 66.9365 72.8475 66.7844 72.9533C67.0205 73.2896 67.3209 73.6173 67.6857 73.9365C68.0504 74.2556 68.4267 74.5103 68.8146 74.7005C68.8631 74.7242 68.9035 74.744 68.9358 74.7599C68.9843 74.7837 69.0328 74.8074 69.0813 74.8312C69.2023 74.8705 69.3879 74.9214 69.6379 74.9838C69.8959 75.0301 70.0572 75.0691 70.1218 75.1008C70.4612 75.2672 70.7045 75.4867 70.8515 75.7592C71.0147 76.0397 71.0052 76.3658 70.8229 76.7376C70.6407 77.1093 70.3168 77.3815 69.8512 77.5542C69.3856 77.7269 68.847 77.8236 68.2354 77.8445C67.6238 77.8654 66.9956 77.8381 66.351 77.7626C65.7144 77.671 65.1219 77.571 64.5736 77.4625C64.0254 77.3541 63.5939 77.2528 63.2792 77.1587C62.7858 77.879 62.3126 78.6193 61.8596 79.3795C61.4146 80.1236 61.002 80.8835 60.6216 81.6593C60.5424 81.8209 60.4917 82.0266 60.4695 82.2763C60.4552 82.5099 60.5531 82.6782 60.7632 82.7812C61.5587 82.5898 62.3987 82.4303 63.2832 82.3027C64.1677 82.175 65.0449 82.144 65.9148 82.2097C66.8088 82.2671 67.6356 82.482 68.3953 82.8544C69.2195 83.2586 69.9075 83.7362 70.4592 84.2874C71.0109 84.8385 71.35 85.4758 71.4764 86.1994C71.6028 86.9229 71.4402 87.7453 70.9885 88.6665Z" fill="white"/>
<path d="M98.611 104.986C98.4505 105.406 98.196 105.695 97.8474 105.851C97.4989 106.006 97.1144 106.004 96.694 105.844L75.228 97.6491L75.6865 96.5237L84.9187 100.048L92.1215 81.1801L94.7953 82.2008L91.8294 89.9699L97.5049 92.1366C97.5178 92.1029 97.5222 92.0661 97.5182 92.026C97.5311 91.9924 97.5439 91.9588 97.5567 91.9251C97.7044 91.5384 97.9809 91.2682 98.3863 91.1147C98.815 90.9508 99.2143 90.9395 99.5842 91.0807C99.971 91.2283 100.262 91.4745 100.458 91.819C100.671 92.17 100.701 92.5473 100.547 92.9509C100.405 93.3208 100.134 93.6026 99.7325 93.7962C99.3479 93.9961 98.9622 94.0223 98.5754 93.8746L91.3865 91.1303L87.5925 101.069L95.6139 104.131C95.6099 104.091 95.6175 104.046 95.6368 103.995C95.6561 103.945 95.6721 103.903 95.6849 103.869C95.8326 103.482 96.1007 103.209 96.4893 103.049C96.9011 102.879 97.3004 102.867 97.6872 103.015C98.074 103.163 98.3557 103.434 98.5325 103.829C98.7325 104.214 98.7586 104.599 98.611 104.986Z" fill="white"/>
<path d="M125.718 98.6364C125.62 98.983 125.412 99.2609 125.091 99.4701C124.776 99.662 124.398 99.8085 123.958 99.9095C123.536 100.015 123.112 100.093 122.687 100.142C122.285 100.178 121.939 100.212 121.649 100.243C121.551 100.795 121.432 101.351 121.294 101.91C121.161 102.452 121.033 103.006 120.912 103.57C120.842 103.887 120.772 104.203 120.702 104.52C120.632 104.837 120.553 105.151 120.465 105.463C120.11 106.729 119.527 107.808 118.716 108.702C117.921 109.601 116.893 110.266 115.632 110.697C115.239 110.83 114.763 110.93 114.202 110.997C113.658 111.069 113.105 111.11 112.541 111.12C111.995 111.135 111.505 111.147 111.072 111.157C110.793 111.153 110.459 111.144 110.071 111.128C109.695 111.135 109.377 111.102 109.117 111.029C109.048 111.01 109.021 110.974 109.035 110.922C109.05 110.87 109.105 110.839 109.202 110.828C109.276 110.831 109.37 110.829 109.483 110.823C109.597 110.818 109.674 110.811 109.713 110.804C109.844 110.803 109.969 110.791 110.088 110.769C110.219 110.768 110.352 110.759 110.488 110.741C111.123 110.676 111.716 110.562 112.267 110.398C112.835 110.24 113.424 110.003 114.036 109.689C115.042 109.167 115.838 108.531 116.423 107.779C117.025 107.031 117.501 106.202 117.85 105.291C118.221 104.367 118.548 103.402 118.83 102.397C118.927 102.05 119.024 101.703 119.122 101.357C119.219 101.01 119.314 100.672 119.406 100.343C119.109 100.335 118.798 100.313 118.471 100.277C118.145 100.241 117.834 100.182 117.539 100.1C116.673 99.8567 115.945 99.4188 115.356 98.7862C114.789 98.1411 114.318 97.4202 113.944 96.6233C113.555 96.9441 113.105 97.379 112.596 97.9279C112.109 98.4643 111.625 99.0575 111.144 99.7076C110.662 100.358 110.237 101.005 109.87 101.65C109.507 102.277 109.257 102.833 109.121 103.319C109.048 103.579 108.986 103.832 108.936 104.08C108.907 104.315 108.893 104.563 108.895 104.825C108.898 105.013 108.899 105.21 108.897 105.415C108.918 105.608 108.902 105.8 108.848 105.99C108.756 106.319 108.563 106.639 108.271 106.95C107.978 107.26 107.632 107.36 107.234 107.248C107.026 107.189 106.841 107.082 106.679 106.924C106.518 106.767 106.387 106.599 106.288 106.422C105.976 105.867 105.763 105.227 105.648 104.503C105.555 103.767 105.537 103.033 105.593 102.301C105.654 101.551 105.769 100.873 105.939 100.267C106.333 98.8628 106.849 97.5215 107.489 96.2426C108.133 94.9464 108.785 93.6526 109.447 92.3613C109.535 92.1803 109.614 91.997 109.685 91.8112C109.761 91.6081 109.828 91.4026 109.886 91.1946C110.013 90.744 110.112 90.2577 110.183 89.7356C110.277 89.2011 110.248 88.7067 110.095 88.2525L110.128 88.2338C110.567 88.6001 110.963 89.0569 111.314 89.6041C111.683 90.1562 111.947 90.7446 112.109 91.3694C112.275 91.9768 112.275 92.5752 112.11 93.1644C111.954 93.719 111.66 94.2347 111.227 94.7115C110.799 95.171 110.411 95.6228 110.062 96.0671C109.518 96.7373 109.053 97.4293 108.666 98.1433C108.284 98.8399 107.973 99.6128 107.735 100.462C107.706 100.566 107.666 100.742 107.615 100.989C107.582 101.242 107.579 101.484 107.608 101.716C107.641 101.931 107.735 102.06 107.891 102.104C108.013 102.138 108.134 102.107 108.254 102.01C108.375 101.913 108.474 101.828 108.55 101.756C108.653 101.654 108.739 101.548 108.808 101.436C108.894 101.329 108.98 101.223 109.066 101.116C109.255 100.907 109.445 100.699 109.634 100.49C109.846 100.269 110.046 100.054 110.236 99.8455C110.821 99.2246 111.41 98.6234 112.003 98.042C112.619 97.4481 113.249 96.8677 113.894 96.3009C114.185 96.663 114.507 96.9495 114.859 97.1604C115.216 97.354 115.611 97.5116 116.044 97.6332C116.651 97.8033 117.298 97.9288 117.986 98.0096C118.695 98.0779 119.359 98.0772 119.977 98.0074C120.079 97.6435 120.195 97.1991 120.323 96.6743C120.456 96.1322 120.57 95.5939 120.664 95.0594C120.763 94.5075 120.795 94.0586 120.761 93.7126C120.73 93.2924 120.616 92.9988 120.42 92.8316C120.246 92.6519 119.973 92.4913 119.601 92.3496C119.849 91.9331 120.239 91.6778 120.77 91.5837C121.301 91.4897 121.783 91.5035 122.216 91.625C122.528 91.7125 122.82 91.9065 123.091 92.2068C123.362 92.5072 123.566 92.8449 123.704 93.2201C123.846 93.5779 123.872 93.9215 123.779 94.2508C123.755 94.3374 123.716 94.4105 123.662 94.4701C123.63 94.5173 123.584 94.5793 123.525 94.6562C123.309 94.8946 123.145 95.1105 123.035 95.3039C122.925 95.4973 122.823 95.7586 122.731 96.0879L122.571 96.6598C122.67 96.8374 122.806 96.9876 122.977 97.1104C123.153 97.2158 123.336 97.2953 123.527 97.3488C123.822 97.4314 124.093 97.3955 124.342 97.241C124.591 97.0865 124.829 97.0409 125.054 97.1041C125.348 97.1868 125.552 97.3935 125.665 97.7243C125.778 98.055 125.795 98.3591 125.718 98.6364ZM128.25 95.3086C128.172 95.5859 128.028 95.798 127.819 95.9448C127.609 96.0917 127.357 96.1238 127.063 96.0412C126.803 95.9683 126.631 95.7799 126.548 95.4762C126.465 95.1725 126.403 94.8279 126.361 94.4424C126.325 94.0395 126.231 93.6394 126.081 93.2421C125.948 92.8496 125.691 92.5343 125.309 92.2963L125.29 92.263L125.35 92.2516C125.904 92.4072 126.431 92.6297 126.929 92.919C127.45 93.1959 127.84 93.6045 128.099 94.1447C128.199 94.3223 128.257 94.5161 128.273 94.7262C128.311 94.9238 128.303 95.1179 128.25 95.3086ZM131.289 94.1702C131.211 94.4475 131.054 94.6745 130.818 94.8512C130.603 95.0154 130.349 95.0562 130.054 94.9735C129.898 94.9298 129.774 94.8389 129.682 94.7009C129.612 94.5504 129.551 94.4023 129.498 94.2567C129.31 93.6617 129.066 93.0979 128.767 92.5653C128.485 92.0375 128.114 91.5596 127.655 91.1316L127.629 91.1243C127.76 91.1237 127.929 91.1526 128.137 91.2109C128.345 91.2693 128.51 91.3154 128.631 91.3495C129.047 91.4662 129.483 91.6446 129.939 91.8847C130.413 92.1297 130.792 92.4419 131.079 92.8213C131.365 93.2006 131.435 93.6503 131.289 94.1702Z" fill="white"/>
<path d="M151.103 111.531C150.878 112.752 150.411 113.746 149.703 114.512C149.012 115.282 148.163 115.867 147.155 116.267C146.169 116.652 145.099 116.894 143.946 116.993C142.808 117.112 141.67 117.131 140.532 117.049C139.411 116.971 138.373 116.844 137.417 116.667L136.647 116.525C136.612 116.519 136.569 116.502 136.519 116.474C136.466 116.465 136.446 116.424 136.459 116.353C136.476 116.265 136.558 116.216 136.706 116.207C136.999 116.206 137.29 116.214 137.58 116.231C137.867 116.265 138.156 116.282 138.449 116.281C139.314 116.258 140.245 116.173 141.242 116.027C142.26 115.867 143.242 115.6 144.19 115.226C145.155 114.854 145.974 114.337 146.645 113.674C147.334 113.014 147.772 112.18 147.958 111.171C148.199 109.861 148.018 108.857 147.414 108.16C146.814 107.445 145.886 106.972 144.629 106.74C144.558 106.727 144.485 106.723 144.411 106.728C144.341 106.715 144.259 106.709 144.168 106.71C142.975 106.728 141.907 106.962 140.964 107.41C140.042 107.844 139.194 108.42 138.421 109.138C137.666 109.859 136.94 110.667 136.244 111.564C136.078 111.771 135.853 111.995 135.571 112.236C135.292 112.459 135.002 112.543 134.701 112.488C134.365 112.426 134.103 112.258 133.915 111.986C133.727 111.713 133.61 111.408 133.562 111.07C133.518 110.714 133.522 110.394 133.574 110.111C133.649 109.704 133.772 109.388 133.941 109.163C134.129 108.941 134.388 108.723 134.721 108.51C135.137 108.239 135.565 107.998 136.007 107.786C136.452 107.557 136.868 107.286 137.255 106.973C137.901 106.452 138.53 105.918 139.143 105.372C139.756 104.826 140.369 104.28 140.982 103.734C141.463 103.311 141.935 102.885 142.398 102.458C142.879 102.034 143.328 101.586 143.744 101.114C143.865 100.953 144.038 100.71 144.263 100.386C144.491 100.043 144.621 99.7838 144.654 99.6067C144.696 99.3766 144.62 99.2436 144.425 99.2077C144.089 99.1457 143.657 99.2034 143.13 99.3808C142.604 99.5582 142.079 99.7726 141.557 100.024C141.034 100.276 140.619 100.492 140.311 100.673C140.168 100.756 140.016 100.838 139.854 100.918C139.714 100.984 139.555 101 139.378 100.968C138.635 100.831 138.147 100.448 137.915 99.8194C137.684 99.191 137.628 98.5493 137.749 97.8943C137.785 97.6996 137.836 97.4711 137.903 97.2088C137.99 96.9321 138.127 96.7377 138.312 96.6254C138.345 97.1439 138.527 97.5436 138.86 97.8246C139.21 98.1088 139.615 98.2934 140.076 98.3782C140.695 98.4925 141.362 98.4507 142.075 98.2528C142.792 98.0372 143.43 97.807 143.987 97.562C144.408 97.365 144.788 97.1881 145.129 97.0312C145.472 96.8565 145.891 96.8149 146.387 96.9063C146.617 96.9487 146.873 97.0508 147.154 97.2125C147.453 97.3774 147.69 97.531 147.866 97.6731C148.14 97.8702 148.364 98.0945 148.538 98.3461C148.729 98.601 148.79 98.9143 148.721 99.286C148.646 99.6931 148.453 99.9961 148.142 100.195C147.852 100.379 147.535 100.559 147.191 100.734C145.937 101.381 144.777 102.164 143.71 103.084C142.662 104.007 141.62 104.941 140.586 105.885C140.345 106.097 140.103 106.318 139.86 106.548C139.619 106.759 139.402 106.994 139.208 107.251C139.921 106.961 140.692 106.701 141.521 106.47C142.372 106.224 143.227 106.052 144.087 105.954C144.947 105.857 145.758 105.878 146.519 106.018C147.493 106.198 148.357 106.522 149.113 106.991C149.871 107.442 150.438 108.04 150.813 108.787C151.206 109.536 151.303 110.451 151.103 111.531Z" fill="white"/>
<path d="M171.491 119.093C171.44 119.649 171.201 120.088 170.774 120.411C170.345 120.751 169.862 120.897 169.324 120.847C168.787 120.798 168.338 120.567 167.978 120.155C167.616 119.76 167.461 119.285 167.512 118.73C167.562 118.174 167.801 117.735 168.228 117.412C168.656 117.09 169.138 116.953 169.676 117.003C170.214 117.052 170.663 117.274 171.025 117.668C171.386 118.063 171.542 118.538 171.491 119.093ZM173.783 101.436C173.775 101.525 173.758 101.614 173.732 101.702C173.723 101.792 173.706 101.881 173.68 101.969C173.536 102.552 173.384 103.134 173.222 103.716C173.062 104.28 172.911 104.845 172.769 105.41C172.472 106.684 172.148 107.956 171.797 109.225C171.447 110.477 171.142 111.741 170.881 113.019C170.836 113.304 170.773 113.596 170.692 113.896C170.628 114.198 170.547 114.488 170.449 114.769C170.397 114.945 170.311 115.099 170.19 115.233C170.089 115.35 169.94 115.4 169.743 115.382C169.492 115.359 169.332 115.227 169.264 114.986C169.215 114.728 169.213 114.448 169.259 114.145C169.305 113.842 169.335 113.609 169.35 113.448C169.396 112.946 169.424 112.443 169.434 111.937C169.444 111.432 169.454 110.927 169.464 110.422C169.497 109.467 169.52 108.52 169.534 107.581C169.549 106.625 169.554 105.676 169.55 104.736C169.549 104.158 169.529 103.577 169.492 102.996C169.457 102.396 169.465 101.809 169.518 101.236C169.659 99.6941 170.491 98.9929 172.014 99.1322C172.57 99.183 173.016 99.4497 173.351 99.9322C173.687 100.415 173.831 100.916 173.783 101.436Z" fill="white"/>
<path d="M196.747 113.194V110.413H191.914V113.194H196.747ZM196.747 109.36V106.822H191.914V109.36H196.747ZM204.388 106.822H199.231V109.36H201.337C201.355 109.108 201.454 108.901 201.634 108.739C201.832 108.577 202.048 108.496 202.282 108.496C202.534 108.496 202.759 108.595 202.957 108.793C203.155 108.991 203.254 109.216 203.254 109.468C203.254 109.774 203.155 110.008 202.957 110.17C202.777 110.332 202.534 110.413 202.228 110.413H199.231V113.194H202.849C203.425 113.194 203.821 112.987 204.037 112.573C204.271 112.141 204.388 111.682 204.388 111.196V106.822ZM209.923 102.313C209.923 102.709 209.77 103.024 209.464 103.258C209.158 103.474 208.816 103.582 208.438 103.582H199.231V105.823H206.899V110.629C206.899 111.925 206.566 112.843 205.9 113.383C205.252 113.923 204.307 114.193 203.065 114.193H199.231V123.346H196.747V116.002C195.649 117.424 194.443 118.612 193.129 119.566C191.833 120.502 190.357 121.312 188.701 121.996C188.521 122.068 188.242 122.167 187.864 122.293C187.486 122.419 187.108 122.527 186.73 122.617C186.37 122.725 186.1 122.779 185.92 122.779C185.866 122.779 185.803 122.761 185.731 122.725C185.659 122.707 185.623 122.662 185.623 122.59C185.623 122.5 185.749 122.374 186.001 122.212C186.253 122.068 186.514 121.915 186.784 121.753C187.072 121.609 187.261 121.51 187.351 121.456C188.287 120.88 189.205 120.214 190.105 119.458C191.023 118.684 191.878 117.856 192.67 116.974C193.462 116.074 194.128 115.147 194.668 114.193H189.673V105.823H196.747V103.582H186.919V102.448H196.747V98.9109H199.231V102.448H207.142C207.142 102.034 207.259 101.674 207.493 101.368C207.745 101.044 208.087 100.882 208.519 100.882C208.897 100.882 209.221 101.026 209.491 101.314C209.779 101.602 209.923 101.935 209.923 102.313ZM211.354 121.213C211.354 121.555 211.228 121.843 210.976 122.077C210.724 122.329 210.427 122.455 210.085 122.455C209.149 122.455 208.186 122.257 207.196 121.861C206.206 121.465 205.243 120.943 204.307 120.295C203.371 119.647 202.507 118.945 201.715 118.189C200.923 117.433 200.257 116.695 199.717 115.975L202.093 114.679C202.939 115.993 203.92 117.253 205.036 118.459C206.152 119.647 207.403 120.61 208.789 121.348C208.789 121.33 208.78 121.312 208.762 121.294C208.762 121.276 208.762 121.258 208.762 121.24C208.762 120.898 208.888 120.601 209.14 120.349C209.41 120.079 209.716 119.944 210.058 119.944C210.4 119.944 210.697 120.07 210.949 120.322C211.219 120.574 211.354 120.871 211.354 121.213Z" fill="white"/>
<path d="M229.463 111.995C229.29 112.679 229.004 113.402 228.603 114.161C228.203 114.921 227.724 115.516 227.167 115.946C227.102 116.025 227.024 116.068 226.935 116.076C226.863 116.083 226.824 116.05 226.817 115.978C226.808 115.871 226.826 115.779 226.874 115.702C227.074 115.123 227.219 114.541 227.31 113.954C227.419 113.366 227.5 112.771 227.554 112.169L224.919 112.41L224.589 117.402L232.117 116.714C232.168 115.878 232.209 115.052 232.243 114.235C232.275 113.401 232.29 112.568 232.286 111.737L229.463 111.995ZM225.343 106.38L224.992 111.428L227.6 111.189C227.627 110.5 227.637 109.812 227.628 109.126C227.618 108.422 227.582 107.729 227.519 107.048C227.87 107.125 228.238 107.199 228.624 107.273C229.009 107.328 229.363 107.44 229.685 107.609C229.928 107.696 230.06 107.855 230.082 108.088C230.1 108.286 230.081 108.576 230.026 108.961C229.987 109.326 229.94 109.701 229.885 110.086C229.83 110.47 229.776 110.773 229.724 110.995L232.278 110.761C232.291 109.911 232.286 109.071 232.265 108.241C232.261 107.41 232.239 106.581 232.2 105.753L225.343 106.38ZM219.367 111.888C219.375 111.977 219.373 112.05 219.36 112.105C219.256 112.946 219.089 113.883 218.858 114.917C218.645 115.948 218.385 116.966 218.08 117.97C217.79 118.955 217.455 119.835 217.074 120.611C217.03 120.723 216.959 120.838 216.861 120.955C216.783 121.089 216.672 121.162 216.529 121.176C216.421 121.185 216.243 121.111 215.993 120.953C215.744 120.795 215.474 120.612 215.184 120.404C214.892 120.177 214.62 119.967 214.367 119.774C214.131 119.56 213.964 119.413 213.866 119.331C214.685 118.407 215.456 117.442 216.177 116.436C216.916 115.428 217.57 114.375 218.138 113.274C218.202 113.178 218.285 112.999 218.387 112.736C218.506 112.454 218.636 112.189 218.776 111.942C218.916 111.694 219.03 111.566 219.12 111.558C219.21 111.55 219.268 111.589 219.294 111.677C219.336 111.746 219.361 111.816 219.367 111.888ZM218.444 109.206C218.456 109.332 218.426 109.398 218.354 109.405C218.3 109.409 218.254 109.405 218.217 109.39C218.179 109.375 218.142 109.361 218.104 109.346C217.32 109.074 216.512 108.832 215.679 108.619C214.864 108.404 214.044 108.226 213.217 108.085C213.356 107.819 213.484 107.545 213.603 107.263C213.74 106.98 213.869 106.706 213.989 106.442C214.065 106.29 214.134 106.148 214.194 106.016C214.253 105.866 214.312 105.725 214.372 105.593C214.436 105.497 214.501 105.419 214.568 105.358C214.633 105.28 214.728 105.235 214.854 105.224C214.907 105.219 214.962 105.223 215.017 105.236C215.091 105.247 215.155 105.26 215.211 105.273C215.361 105.331 215.585 105.509 215.883 105.808C216.199 106.104 216.53 106.453 216.874 106.856C217.218 107.258 217.523 107.637 217.791 107.992C218.076 108.345 218.253 108.6 218.322 108.757C218.346 108.827 218.372 108.906 218.398 108.994C218.422 109.064 218.438 109.135 218.444 109.206ZM238.88 109.724C238.92 110.154 238.798 110.509 238.516 110.788C238.235 111.066 237.888 111.225 237.475 111.262L234.652 111.52C234.62 112.355 234.588 113.189 234.556 114.024C234.522 114.84 234.48 115.666 234.43 116.502L235.64 116.392C235.609 116.051 235.673 115.765 235.832 115.534C236.008 115.283 236.267 115.142 236.607 115.11C236.912 115.083 237.182 115.166 237.416 115.362C237.649 115.539 237.78 115.78 237.808 116.085C237.837 116.408 237.771 116.676 237.61 116.889C237.449 117.103 237.198 117.225 236.858 117.257L234.303 117.49C234.29 117.545 234.277 117.601 234.264 117.656C234.269 117.71 234.265 117.765 234.252 117.82C234.142 118.987 233.759 119.944 233.105 120.69C232.468 121.436 231.54 121.864 230.321 121.975C229.855 122.018 229.352 121.955 228.813 121.788C228.293 121.636 227.784 121.412 227.287 121.114C226.809 120.832 226.411 120.525 226.091 120.193C226.07 120.159 226.04 120.125 226.001 120.093C225.962 120.06 225.94 120.026 225.937 119.99C225.932 119.936 225.957 119.907 226.01 119.902C226.064 119.897 226.11 119.902 226.147 119.917C226.204 119.948 226.252 119.97 226.289 119.985C226.739 120.161 227.202 120.281 227.678 120.346C228.043 120.385 228.405 120.397 228.766 120.382C229.127 120.385 229.478 120.371 229.819 120.34C230.446 120.283 230.938 120.021 231.293 119.555C231.649 119.106 231.864 118.59 231.937 118.005C231.95 117.949 231.954 117.895 231.949 117.841C231.944 117.787 231.949 117.741 231.964 117.704C230.691 117.82 229.41 117.946 228.121 118.082C226.849 118.199 225.576 118.315 224.303 118.431C223.963 118.462 223.604 118.495 223.228 118.53C222.869 118.562 222.511 118.595 222.152 118.628L222.66 112.617L220.16 112.845L220.071 111.877L222.733 111.634L223.221 105.706C225.139 105.531 227.057 105.355 228.975 105.18C230.892 104.987 232.809 104.802 234.727 104.627C234.745 105.619 234.755 106.613 234.755 107.607C234.754 108.583 234.726 109.562 234.671 110.543L236.096 110.412C236.029 110.274 235.989 110.133 235.976 109.99C235.939 109.577 236.051 109.224 236.313 108.929C236.575 108.633 236.904 108.468 237.298 108.432C237.692 108.396 238.046 108.508 238.359 108.769C238.67 109.011 238.844 109.33 238.88 109.724ZM219.522 103.197C219.541 103.413 219.461 103.528 219.282 103.545C219.282 103.545 219.126 103.514 218.813 103.452C218.516 103.371 218.137 103.279 217.676 103.176C217.233 103.072 216.771 102.97 216.292 102.869C215.829 102.749 215.405 102.652 215.019 102.579C214.649 102.486 214.4 102.437 214.273 102.43C214.486 101.995 214.69 101.56 214.886 101.127C215.081 100.693 215.304 100.266 215.555 99.8456C215.602 99.769 215.65 99.7014 215.699 99.6427C215.766 99.5824 215.844 99.5481 215.934 99.5399C216.149 99.5202 216.442 99.6651 216.814 99.9746C217.202 100.264 217.597 100.635 218 101.086C218.419 101.518 218.774 101.937 219.064 102.345C219.353 102.734 219.505 103.018 219.522 103.197ZM236.069 100.627C236.1 100.968 235.985 101.286 235.723 101.581C235.477 101.856 235.183 102.01 234.843 102.041L224.437 102.992C223.976 103.685 223.409 104.397 222.735 105.127C222.06 105.857 221.375 106.462 220.677 106.942C220.643 106.963 220.6 106.985 220.548 107.008C220.496 107.031 220.452 107.044 220.416 107.047C220.29 107.058 220.223 107.01 220.213 106.903C220.208 106.849 220.222 106.803 220.254 106.764C220.285 106.706 220.308 106.659 220.323 106.622C221.936 103.908 223.051 100.977 223.667 97.8297L226.579 98.2414C226.67 98.2511 226.762 98.2698 226.855 98.2974C226.964 98.3055 227.024 98.3723 227.036 98.4978C227.051 98.6591 226.982 98.9003 226.831 99.2215C226.68 99.5426 226.494 99.8849 226.274 100.248C226.053 100.594 225.839 100.93 225.634 101.256C225.427 101.564 225.268 101.795 225.155 101.95L233.276 101.208C233.253 101.156 233.23 101.104 233.207 101.052C233.202 100.998 233.197 100.944 233.192 100.89C233.158 100.514 233.272 100.178 233.534 99.883C233.795 99.5699 234.113 99.3962 234.49 99.3618C234.866 99.3274 235.211 99.4405 235.524 99.7011C235.853 99.9421 236.035 100.251 236.069 100.627Z" fill="white"/>
<path d="M267.139 112.889C267.221 113.332 267.145 113.712 266.91 114.03C266.676 114.347 266.338 114.547 265.895 114.629L243.618 118.736L243.397 117.541L253.726 115.637L252.537 109.185L246.43 110.311L246.224 109.196L252.331 108.07L251.264 102.281L246.086 103.236C245.872 103.861 245.57 104.557 245.181 105.325C244.791 106.092 244.362 106.839 243.892 107.566C243.419 108.276 242.954 108.883 242.498 109.388C242.437 109.455 242.376 109.521 242.315 109.587C242.269 109.632 242.201 109.663 242.113 109.679C241.971 109.705 241.887 109.647 241.861 109.506C241.845 109.417 241.883 109.227 241.975 108.936C242.068 108.644 242.161 108.352 242.253 108.061C242.36 107.748 242.431 107.534 242.464 107.418C242.74 106.433 242.986 105.382 243.2 104.262C243.412 103.125 243.577 101.987 243.697 100.848C243.816 99.7099 243.855 98.632 243.814 97.6146L246.785 97.9453C246.877 97.9467 246.963 97.9674 247.044 98.0074C247.139 98.0265 247.195 98.0803 247.211 98.1688C247.234 98.2927 247.213 98.5254 247.147 98.8669C247.097 99.1874 247.028 99.5571 246.94 99.9759C246.849 100.377 246.764 100.759 246.685 101.121C246.602 101.466 246.538 101.716 246.493 101.87L251.034 101.033L249.775 94.2092L252.404 93.7245L253.662 100.548L259.504 99.4714C259.422 99.0288 259.483 98.6149 259.687 98.2296C259.89 97.8443 260.222 97.6093 260.682 97.5244C261.09 97.4493 261.462 97.5361 261.801 97.7848C262.154 98.0126 262.368 98.33 262.443 98.7372C262.522 99.162 262.426 99.5366 262.156 99.8608C261.887 100.185 261.548 100.385 261.141 100.46L253.892 101.796L254.96 107.585L259.261 106.792C259.183 106.367 259.229 105.974 259.401 105.613C259.569 105.234 259.892 105.001 260.37 104.913C260.742 104.844 261.095 104.925 261.431 105.156C261.766 105.387 261.97 105.697 262.042 106.087C262.126 106.547 262.029 106.913 261.75 107.184C261.467 107.437 261.122 107.602 260.715 107.677L255.165 108.7L256.355 115.152L264.108 113.723C264.084 113.691 264.064 113.63 264.048 113.542C263.969 113.117 264.048 112.7 264.284 112.29C264.519 111.881 264.858 111.635 265.301 111.554C265.743 111.472 266.136 111.564 266.478 111.831C266.837 112.094 267.058 112.447 267.139 112.889Z" fill="white"/>
<path d="M277.301 92.2364C275.648 93.0741 274.377 94.2066 273.487 95.6339C272.615 97.0563 272.109 98.6845 271.969 100.518C271.935 100.996 271.931 101.483 271.958 101.98C271.981 102.459 272.058 102.933 272.189 103.401C272.272 103.696 272.408 104.05 272.599 104.464C272.785 104.86 273.02 105.197 273.303 105.472C273.598 105.726 273.945 105.797 274.344 105.685C274.639 105.602 274.894 105.447 275.11 105.218C275.326 104.989 275.514 104.759 275.673 104.527C276.266 103.706 276.729 102.791 277.063 101.782C277.391 100.755 277.608 99.6937 277.712 98.5989C277.811 97.4867 277.822 96.3902 277.743 95.3094C277.676 94.2063 277.529 93.182 277.301 92.2364ZM290.12 96.5481C290.519 97.9693 290.648 99.2605 290.506 100.422C290.36 101.566 289.883 102.765 289.076 104.02C288.473 104.937 287.73 105.753 286.846 106.468C285.975 107.161 285.062 107.773 284.108 108.302C283.733 108.501 283.35 108.701 282.959 108.905C282.567 109.108 282.163 109.268 281.747 109.385C281.661 109.409 281.608 109.387 281.588 109.317C281.574 109.265 281.581 109.226 281.611 109.199C281.658 109.167 281.697 109.137 281.726 109.11C282.069 108.865 282.416 108.636 282.768 108.425C283.133 108.192 283.473 107.938 283.788 107.663C285.499 106.229 286.586 104.606 287.049 102.794C287.53 100.976 287.474 99.0104 286.881 96.896C286.473 95.4402 285.766 94.255 284.762 93.3403C283.752 92.4083 282.498 91.8348 280.998 91.6199C280.156 91.4824 279.327 91.5278 278.513 91.7563C278.443 91.7758 278.376 91.8039 278.312 91.8407C278.243 91.8601 278.165 91.882 278.078 91.9063C278.092 92.0893 278.106 92.2724 278.12 92.4554C278.146 92.6163 278.184 92.7833 278.232 92.9566C278.349 93.3726 278.524 93.7628 278.757 94.1274C279.008 94.4871 279.191 94.875 279.308 95.2909C279.376 95.5335 279.42 95.7921 279.441 96.0667C279.475 96.319 279.5 96.5738 279.516 96.831C279.596 98.1171 279.557 99.4459 279.4 100.817C279.255 102.167 278.947 103.468 278.476 104.722C278.006 105.976 277.333 107.109 276.457 108.121C276.283 108.3 276.098 108.474 275.902 108.641C275.706 108.808 275.487 108.926 275.244 108.994C274.776 109.125 274.411 109.125 274.15 108.992C273.901 108.838 273.701 108.623 273.549 108.348C273.409 108.05 273.284 107.74 273.175 107.415C273.078 107.069 272.947 106.769 272.782 106.516C272.549 106.151 272.302 105.903 272.04 105.77C271.779 105.638 271.529 105.512 271.289 105.392C271.05 105.272 270.81 105.05 270.569 104.725C270.328 104.4 270.104 103.865 269.895 103.12C269.749 102.6 269.695 102.007 269.732 101.342C269.783 100.655 269.886 100.056 270.041 99.5449C270.68 97.2906 271.754 95.4191 273.262 93.9305C274.765 92.4245 276.643 91.3555 278.896 90.7234C280.768 90.1983 282.514 90.0917 284.134 90.4036C285.755 90.7155 287.199 91.6657 288.467 93.2542C288.861 93.7234 289.194 94.2467 289.468 94.8241C289.738 95.3842 289.955 95.9589 290.12 96.5481Z" fill="white"/>
<path d="M321.945 96.1427C322.067 96.4623 322.035 96.7827 321.85 97.104C321.681 97.4189 321.437 97.6373 321.117 97.7593C320.848 97.862 320.541 97.9407 320.196 97.9954C319.851 98.0501 319.531 98.0952 319.236 98.1307C318.429 98.1881 317.584 98.1446 316.701 98.0003C315.84 97.8663 315.008 97.6542 314.204 97.364C312.768 96.8331 311.414 96.088 310.142 95.1285C308.881 94.1457 307.771 93.0567 306.814 91.8615C306.989 93.6829 306.752 95.4592 306.103 97.1906C305.471 98.9156 304.566 100.533 303.389 102.042C302.925 102.643 302.401 103.189 301.818 103.682C301.252 104.167 300.66 104.634 300.041 105.083C299.947 105.138 299.852 105.193 299.758 105.249C299.686 105.314 299.6 105.366 299.499 105.405C299.483 105.411 299.437 105.419 299.364 105.428C299.296 105.454 299.253 105.441 299.234 105.391C299.202 105.307 299.229 105.2 299.314 105.071C299.423 104.952 299.505 104.863 299.559 104.804C299.825 104.491 300.079 104.172 300.321 103.848C300.57 103.541 300.804 103.221 301.024 102.887C302.028 101.328 302.803 99.674 303.349 97.9242C303.888 96.1577 304.132 94.3497 304.081 92.5002C304.054 91.7209 303.964 90.9556 303.812 90.2044C303.677 89.4467 303.496 88.6967 303.271 87.9544L294.543 91.2861L294.119 90.1762L302.898 86.8252C302.737 86.4048 302.516 85.8246 302.233 85.0847C301.961 84.3216 301.661 83.5112 301.334 82.6535C301 81.7791 300.695 80.9803 300.419 80.2572L303.37 79.1306C303.788 80.2236 304.207 81.3736 304.63 82.5804C305.069 83.7808 305.458 84.8266 305.798 85.7178L312.281 83.2431C312.245 83.1991 312.217 83.1518 312.198 83.1014C312.179 83.0509 312.16 83.0005 312.14 82.95C311.986 82.5464 311.991 82.1303 312.155 81.7017C312.329 81.2498 312.627 80.9436 313.047 80.7831C313.451 80.6291 313.868 80.6624 314.299 80.8832C314.724 81.0871 315.013 81.3909 315.167 81.7945C315.328 82.2149 315.291 82.6238 315.058 83.0213C314.834 83.3955 314.521 83.6597 314.117 83.8137L306.424 86.7507C306.78 87.4817 307.312 88.2707 308.021 89.1177C308.723 89.9478 309.534 90.7847 310.453 91.6283C311.373 92.4719 312.35 93.2646 313.384 94.0064C314.436 94.7418 315.489 95.3803 316.543 95.9218C317.591 96.4465 318.59 96.8167 319.539 97.0323C319.411 96.696 319.425 96.3535 319.581 96.005C319.736 95.6565 319.983 95.418 320.319 95.2896C320.655 95.1612 320.976 95.193 321.28 95.3851C321.602 95.5707 321.823 95.8232 321.945 96.1427Z" fill="white"/>
<path d="M327.376 76.8349C327.227 78.3714 326.966 79.9029 326.591 81.4295L331.964 92.3873L329.709 93.4927L325.502 84.9107C325.387 85.2076 325.21 85.6047 324.973 86.102C324.736 86.5992 324.466 87.1123 324.164 87.6413C323.87 88.1461 323.565 88.6066 323.248 89.0228C322.923 89.4227 322.623 89.6901 322.348 89.8248C322.251 89.8723 322.187 89.8638 322.155 89.7991C322.123 89.7345 322.116 89.6579 322.133 89.5695C322.165 89.4732 322.198 89.3969 322.231 89.3408C322.691 88.1128 323.092 86.8037 323.433 85.4137C323.766 84.0076 324.014 82.5927 324.178 81.1691C324.359 79.7376 324.434 78.3777 324.403 77.0895L327.376 76.8349ZM346.482 81.0897C346.64 81.4129 346.649 81.8195 346.509 82.3095C346.376 82.7753 346.224 83.1605 346.053 83.4651C345.71 84.034 345.287 84.6224 344.783 85.2302C344.295 85.8302 343.752 86.3774 343.152 86.8718C342.561 87.3824 341.966 87.7843 341.368 88.0775C340.511 88.4974 339.607 88.7802 338.656 88.9257C337.713 89.0874 336.828 89 336.002 88.6635C335.199 88.3352 334.553 87.6701 334.061 86.668C333.166 84.8417 332.262 83.0193 331.351 81.201C330.447 79.3585 329.548 77.5241 328.653 75.6978L331.004 74.5449C331.725 76.0156 332.442 77.4984 333.155 78.9932C333.876 80.464 334.601 81.9428 335.33 83.4297C335.742 84.2701 336.127 84.9735 336.485 85.5398C336.851 86.082 337.243 86.4715 337.659 86.7082C338.076 86.9449 338.591 87.0133 339.203 86.9134C339.816 86.8136 340.583 86.5378 341.504 86.0861C342.264 85.7137 342.935 85.3044 343.518 84.8581C344.101 84.4119 344.645 83.8446 345.149 83.1562C344.586 83.1115 344.182 82.8387 343.936 82.3377C343.77 81.9983 343.745 81.6398 343.86 81.2624C343.968 80.8688 344.2 80.5848 344.555 80.4105C344.911 80.2362 345.273 80.2189 345.642 80.3586C346.028 80.4904 346.307 80.7341 346.482 81.0897ZM339.082 73.1106C339.113 73.1752 339.117 73.2839 339.091 73.4367C339.058 73.5733 339.037 73.6738 339.028 73.7381C338.944 74.2607 338.794 74.8552 338.58 75.5217C338.357 76.172 338.111 76.8141 337.84 77.448C337.562 78.0656 337.288 78.6109 337.018 79.0838C336.921 79.252 336.745 79.5284 336.493 79.9128C336.24 80.2973 335.98 80.6655 335.711 81.0176C335.459 81.3618 335.26 81.5696 335.115 81.6409C335.002 81.6964 334.917 81.6675 334.862 81.5544C334.846 81.5221 334.842 81.4737 334.851 81.4094C334.86 81.3451 334.864 81.2928 334.864 81.2525C335.197 79.8866 335.437 78.4958 335.585 77.0802C335.749 75.6566 335.776 74.24 335.667 72.8304C336.641 72.8138 337.603 72.8334 338.552 72.8891C338.657 72.898 338.753 72.9108 338.842 72.9276C338.946 72.9365 339.026 72.9975 339.082 73.1106ZM337.6 66.4698C337.774 66.8253 337.808 67.1999 337.7 67.5935C337.592 67.9872 337.352 68.2751 336.981 68.4573L331.162 71.3099C331.161 71.5112 331.154 71.8251 331.143 72.2517C331.124 72.6621 331.08 73.0642 331.013 73.4582C330.937 73.8359 330.795 74.0763 330.585 74.1793C330.471 74.2348 330.367 74.2259 330.271 74.1527C330.167 74.0634 330.091 73.9702 330.044 73.8732C329.909 73.5985 329.79 73.3158 329.688 73.0252C329.602 72.7267 329.511 72.4402 329.417 72.1657L325.683 73.9962L326.492 75.5843L324.176 76.81L323.332 75.1491L317.659 77.9304L317.195 76.9849L322.844 74.2155L321.227 71.0392L323.53 69.8496L325.196 73.0626L329.05 71.1727L327.692 67.2981C328.612 66.9671 329.536 66.6644 330.464 66.3899C330.585 66.3506 330.678 66.3352 330.742 66.3438C330.815 66.3283 330.883 66.3851 330.946 66.5144C331.002 66.6276 331.048 66.8453 331.086 67.1676C331.124 67.4899 331.149 67.8483 331.162 68.2429C331.175 68.6374 331.188 69.0118 331.202 69.3662C331.207 69.7043 331.209 69.9539 331.208 70.1149L335.184 68.1656C335.072 68.0601 334.98 67.9346 334.909 67.7891C334.719 67.4012 334.686 67.0065 334.81 66.605C334.933 66.2034 335.189 65.9076 335.577 65.7174C335.949 65.5352 336.335 65.5261 336.737 65.6902C337.13 65.8382 337.418 66.0981 337.6 66.4698Z" fill="white"/>
<path d="M349.012 64.3097C349.049 64.3712 349.064 64.4468 349.055 64.5364C349.047 64.6259 349.041 64.7031 349.038 64.768C348.987 65.4104 348.893 66.1211 348.756 66.8999C348.61 67.6634 348.431 68.4255 348.22 69.1863C348.024 69.9378 347.789 70.6076 347.515 71.196C347.476 71.3043 347.403 71.4437 347.296 71.6142C347.195 71.7599 347.098 71.8609 347.006 71.9171C346.899 71.9826 346.817 71.9693 346.761 71.877C346.714 71.8002 346.69 71.7092 346.689 71.6043C346.704 71.49 346.708 71.3927 346.701 71.3125C346.706 70.2135 346.624 69.1258 346.453 68.0496C346.288 66.9486 346.057 65.8774 345.76 64.8359C346.235 64.7155 346.714 64.6027 347.198 64.4977C347.673 64.3772 348.154 64.2845 348.641 64.2196C348.696 64.2069 348.757 64.2018 348.821 64.2045C348.902 64.1978 348.965 64.2329 349.012 64.3097ZM371.901 68.5163C372.069 68.793 372.116 69.1122 372.041 69.4739C371.967 69.8356 371.791 70.1007 371.514 70.2692C371.237 70.4377 370.937 70.5678 370.614 70.6595C370.3 70.7665 369.993 70.8688 369.694 70.9665C368.249 71.3619 366.785 71.4842 365.302 71.3335C363.826 71.158 362.392 70.7769 361.002 70.1903C359.612 69.6036 358.317 68.896 357.117 68.0673C357.162 68.314 357.199 68.5653 357.229 68.8213C357.273 69.068 357.311 69.3194 357.34 69.5754C357.488 70.9605 357.374 72.3998 356.998 73.8933C356.628 75.3621 356.058 76.7627 355.289 78.0952C354.526 79.403 353.614 80.5173 352.552 81.438C352.423 81.5377 352.275 81.659 352.109 81.8021C351.968 81.9512 351.829 82.0679 351.69 82.1522C351.644 82.1803 351.586 82.2053 351.515 82.2274C351.459 82.2401 351.413 82.2157 351.375 82.1542C351.329 82.0774 351.334 82.0002 351.392 81.9226C351.451 81.845 351.498 81.7845 351.535 81.7411C352.196 80.8538 352.805 79.882 353.363 78.8257C353.927 77.7446 354.321 76.6615 354.546 75.5765C354.893 73.9319 354.964 72.266 354.758 70.5787C354.543 68.8761 354.074 67.2754 353.351 65.7768C353.139 65.3584 352.915 64.957 352.681 64.5727C352.453 64.1636 352.222 63.7669 351.988 63.3825C351.351 62.3371 350.702 61.2887 350.041 60.2373C349.395 59.1766 348.746 58.1281 348.094 57.0921L350.608 55.5614L354.203 61.4648C354.399 61.7876 354.593 62.1228 354.783 62.4704C354.98 62.7933 355.161 63.1255 355.327 63.467C356.194 64.267 357.215 65.0784 358.39 65.9011C359.572 66.699 360.828 67.4301 362.16 68.0943C363.492 68.7585 364.832 69.2806 366.18 69.6607C367.544 70.0314 368.829 70.1865 370.036 70.1261C369.983 70.074 369.93 70.0218 369.878 69.9697C369.85 69.9236 369.817 69.8698 369.779 69.8083C369.611 69.5316 369.578 69.2354 369.681 68.9199C369.79 68.5796 369.975 68.3299 370.236 68.1707C370.498 68.0115 370.797 67.9663 371.134 68.0351C371.477 68.0792 371.732 68.2396 371.901 68.5163ZM361.642 55.5118C361.707 55.6194 361.689 55.8835 361.587 56.304C361.491 56.6998 361.338 57.1932 361.129 57.7842C360.926 58.3504 360.694 58.9555 360.432 59.5993C360.162 60.2277 359.885 60.8285 359.601 61.4014C359.318 61.9744 359.056 62.4608 358.815 62.8606C358.579 63.2357 358.393 63.4654 358.254 63.5496C358.101 63.6433 357.986 63.6286 357.911 63.5056C357.893 63.4748 357.882 63.4394 357.878 63.3993C357.875 63.3592 357.876 63.3268 357.882 63.302C357.899 63.0179 357.928 62.7368 357.969 62.4587C358.017 62.1558 358.049 61.8624 358.065 61.5783C358.262 59.5827 358.214 57.5996 357.92 55.6289C358.441 55.5854 358.958 55.5341 359.47 55.4752C359.982 55.4162 360.496 55.3773 361.011 55.3585C361.107 55.3425 361.224 55.3448 361.363 55.3655C361.493 55.3708 361.586 55.4196 361.642 55.5118Z" fill="white"/>
<path d="M101.942 56.5237C101.929 56.5571 101.903 56.5953 101.866 56.6384C101.829 56.6816 101.792 56.7247 101.755 56.7679C101.286 57.1985 100.695 57.598 99.9797 57.9664C99.2813 58.3416 98.5534 58.6463 97.796 58.8806C97.0318 59.1316 96.3237 59.2694 95.6716 59.294C95.6413 59.3205 95.6012 59.3235 95.5512 59.3031C95.3847 59.2348 95.3287 59.1341 95.3833 59.0008C95.3833 59.0008 95.3867 58.9925 95.3935 58.9758C95.4004 58.9592 95.4072 58.9425 95.414 58.9259C95.8806 58.6891 96.4102 58.3225 97.0026 57.8261C97.6019 57.313 98.1713 56.7779 98.7108 56.2209C99.2571 55.6472 99.6758 55.1476 99.9668 54.7222L101.726 56.0556C101.802 56.1064 101.863 56.1704 101.909 56.2477C101.972 56.3318 101.983 56.4238 101.942 56.5237ZM104.974 57.8829C104.749 58.4325 104.486 59.0738 104.186 59.8066C103.886 60.5395 103.56 61.1451 103.208 61.6235C103.144 61.7333 103.049 61.8211 102.925 61.8869C102.794 61.9694 102.662 61.9833 102.529 61.9287C102.412 61.8809 102.329 61.7983 102.28 61.6809C102.248 61.5703 102.235 61.4583 102.243 61.3447C102.256 60.5526 102.298 59.7624 102.368 58.9741C102.455 58.1927 102.493 57.4108 102.483 56.6286C102.843 56.6984 103.22 56.7751 103.614 56.8587C104.015 56.9255 104.381 57.0272 104.715 57.1637C104.898 57.2388 105.002 57.3399 105.028 57.4672C105.06 57.5777 105.043 57.7163 104.974 57.8829ZM99.0284 41.0614C99.0148 41.0947 98.9708 41.1545 98.8965 41.2408C98.5154 41.6487 98.0267 42.1293 97.4304 42.6825C96.8409 43.2191 96.2201 43.7136 95.5678 44.1661C94.9224 44.6019 94.3217 44.881 93.7658 45.0033C93.709 44.9995 93.6405 45.0006 93.5602 45.0066C93.4966 45.0195 93.4398 45.0157 93.3898 44.9952C93.2732 44.9474 93.2388 44.8652 93.2866 44.7486C93.3003 44.7153 93.3222 44.6854 93.3525 44.6589C93.3897 44.6158 93.4234 44.581 93.4537 44.5545C94.2258 43.7621 94.8881 42.9052 95.4407 41.9839C96.0099 41.0695 96.5576 40.1365 97.0837 39.1849C97.3758 39.4213 97.6915 39.6479 98.0306 39.8647C98.3698 40.0815 98.6668 40.3296 98.9219 40.6092C99.0543 40.7607 99.0898 40.9115 99.0284 41.0614ZM107.166 62.5743C107.105 62.7242 107.015 62.8721 106.897 63.0182C106.788 63.1878 106.634 63.2316 106.434 63.1497C106.318 63.102 106.235 63.0194 106.186 62.902C106.146 62.808 106.119 62.7092 106.103 62.6055C106.088 62.4048 106.081 62.2075 106.083 62.0136C106.078 61.8364 106.076 61.6509 106.078 61.457C106.063 60.8285 106.048 60.2 106.033 59.5714C106.018 58.9429 105.972 58.3208 105.893 57.7051C106.064 57.7165 106.304 57.7469 106.615 57.7963C106.949 57.8359 107.267 57.8887 107.571 57.9548C107.898 58.011 108.12 58.063 108.236 58.1108C108.453 58.1995 108.544 58.334 108.509 58.5142C108.511 58.6512 108.454 58.9098 108.337 59.2899C108.227 59.6533 108.088 60.0633 107.92 60.5198C107.776 60.9665 107.626 61.3814 107.469 61.7645C107.335 62.1378 107.234 62.4077 107.166 62.5743ZM115.96 59.058C115.858 59.3078 115.682 59.4985 115.434 59.6302C115.185 59.7618 114.928 59.773 114.661 59.6638C114.561 59.6229 114.465 59.5736 114.372 59.516C114.279 59.4584 114.192 59.3841 114.113 59.2932C113.576 58.7037 113.119 57.9913 112.742 57.1558C112.381 56.3271 112.111 55.4675 111.931 54.5768C111.775 53.6764 111.695 52.8267 111.692 52.0277C110.643 53.1153 109.452 53.9109 108.117 54.4145C106.799 54.9249 105.387 55.1437 103.88 55.0709C103.806 55.0603 103.729 55.0579 103.649 55.064C103.576 55.0533 103.497 55.0309 103.414 54.9968C103.364 54.9763 103.309 54.9441 103.249 54.9002C103.196 54.8395 103.184 54.7759 103.211 54.7093C103.245 54.626 103.373 54.5519 103.594 54.4869C103.832 54.4287 104.078 54.374 104.332 54.3226C104.587 54.2713 104.758 54.2342 104.845 54.2116C106.513 53.7476 107.873 52.9918 108.925 51.9444C110 50.8871 110.913 49.6078 111.665 48.1066L109.866 47.3695C109.004 48.4754 108.025 49.465 106.928 50.3382C105.831 51.2115 104.632 51.9067 103.33 52.4239C102.053 52.9313 100.692 53.1907 99.2475 53.202C99.1672 53.208 99.0654 53.1954 98.942 53.1643C98.8352 53.14 98.7436 53.1025 98.6672 53.0517C98.6664 53.1486 98.6564 53.3391 98.6373 53.6231C98.625 53.8904 98.6143 54.1777 98.605 54.4852C98.6124 54.7994 98.6085 55.0702 98.5932 55.2973C98.5946 55.5313 98.5884 55.665 98.5748 55.6983C98.5407 55.7816 98.4732 55.8512 98.3725 55.9072C98.2786 55.9465 98.1899 55.9491 98.1067 55.915C98.0234 55.8809 97.9099 55.6593 97.7663 55.2503C97.6393 54.8481 97.4995 54.3823 97.3468 53.8529C97.201 53.3068 97.0664 52.8043 96.9433 52.3453C96.8368 51.8932 96.7657 51.5918 96.7302 51.441C96.2202 52.0685 95.5482 52.688 94.7141 53.2994C93.8967 53.9176 93.0331 54.4585 92.1233 54.9222C91.2136 55.3859 90.3486 55.6929 89.5284 55.8431C89.4716 55.8393 89.4148 55.8354 89.358 55.8316C89.2944 55.8445 89.2293 55.8372 89.1627 55.8099C89.0128 55.7485 88.9617 55.6595 89.0095 55.5429C89.0436 55.4596 89.1311 55.3885 89.272 55.3295C90.1083 54.8552 90.8999 54.3237 91.6469 53.7349C92.4106 53.153 93.1129 52.5071 93.754 51.7971C94.6618 50.7685 95.4606 49.5786 96.1505 48.2272C96.857 46.8827 97.5004 45.5026 98.0805 44.0869C98.6674 42.6544 99.2202 41.3053 99.7389 40.0395C100.019 39.3566 100.29 38.6703 100.553 37.9805C100.833 37.2977 101.101 36.6197 101.358 35.9466L103.881 36.9806C103.506 37.8967 103.127 38.8211 102.745 39.7538C102.369 40.6699 101.974 41.5875 101.558 42.5065C101.983 42.1357 102.407 41.7649 102.831 41.3941C103.272 41.0301 103.67 40.629 104.025 40.1907L105.315 41.7408C105.411 41.8386 105.439 41.9374 105.398 42.0373C105.33 42.2039 105.111 42.3575 104.742 42.4981C104.373 42.6388 103.943 42.7639 103.451 42.8734C102.975 42.9897 102.526 43.0879 102.104 43.1679C101.689 43.2313 101.39 43.2739 101.206 43.2958C100.718 44.4382 100.199 45.5871 99.6476 46.7424C99.1033 47.881 98.4824 48.9688 97.7852 50.0059L99.0335 50.0213C98.9795 50.4855 98.9205 50.9379 98.8567 51.3786C98.7928 51.8193 98.7339 52.2718 98.6798 52.7359C98.7503 52.7064 98.8139 52.6936 98.8707 52.6974C98.9343 52.6846 99.0063 52.6752 99.0865 52.6692C99.8401 52.4916 100.648 52.1808 101.511 51.7368C102.374 51.2928 103.12 50.8495 103.748 50.4068C103.384 50.0628 103.019 49.7188 102.654 49.3748C102.289 49.0308 101.913 48.6917 101.524 48.3575C101.655 48.2751 101.864 48.1464 102.149 47.9717C102.442 47.7803 102.727 47.6055 103.006 47.4474C103.302 47.2961 103.516 47.2478 103.649 47.3024C103.816 47.3706 103.944 47.5789 104.035 47.9273C104.142 48.2825 104.223 48.6559 104.276 49.0475C104.337 49.4223 104.378 49.7018 104.4 49.8858C104.726 49.6111 105.048 49.3247 105.364 49.0265C105.688 48.7117 105.987 48.3866 106.26 48.0513C105.948 47.7679 105.633 47.4928 105.314 47.2261C105.019 46.9495 104.701 46.6828 104.358 46.4258C104.466 46.3532 104.663 46.2295 104.948 46.0547C105.257 45.8702 105.556 45.7105 105.845 45.5759C106.157 45.4314 106.363 45.3797 106.463 45.4206C106.563 45.4616 106.635 45.6176 106.679 45.8888C106.747 46.1501 106.8 46.4246 106.838 46.7124C106.876 47.0002 106.902 47.1959 106.918 47.2997C107.736 46.2536 108.445 45.1632 109.046 44.0284L107.572 43.4244C106.784 44.113 105.895 44.7407 104.904 45.3073C103.913 45.8739 102.889 46.2614 101.831 46.4698C101.751 46.4759 101.659 46.4868 101.555 46.5026C101.458 46.5018 101.368 46.4843 101.285 46.4502C101.201 46.4161 101.173 46.3657 101.201 46.2991C101.228 46.2325 101.376 46.1084 101.645 45.9268C101.921 45.7285 102.2 45.522 102.483 45.3071C102.782 45.099 102.973 44.9635 103.058 44.9007C104.094 44.0804 105.029 43.1507 105.864 42.1114C106.698 41.0722 107.427 39.9802 108.052 38.8356L110.311 40.3738C110.34 40.4442 110.345 40.5044 110.324 40.5544C110.283 40.6543 110.124 40.8519 109.848 41.1471C109.595 41.4324 109.322 41.7192 109.028 42.0076C108.752 42.3028 108.553 42.5033 108.432 42.6093L111.33 43.7968C111.513 43.8719 111.602 43.9863 111.598 44.14C111.61 44.3006 111.582 44.4641 111.513 44.6307C111.24 45.2969 110.899 45.9158 110.49 46.4873L112.114 47.1527C112.496 46.22 112.878 45.2872 113.26 44.3545C113.659 43.4286 114.046 42.5076 114.422 41.5915L116.86 42.6198C116.102 44.4686 115.295 46.2969 114.437 48.1048L116.461 48.934C116.604 48.5842 116.826 48.3053 117.125 48.0972C117.448 47.8793 117.801 47.8488 118.184 48.0058C118.5 48.1355 118.724 48.373 118.855 48.7184C118.985 49.0638 118.986 49.3947 118.856 49.7112C118.727 50.0276 118.497 50.2547 118.169 50.3923C117.847 50.5133 117.528 50.509 117.211 50.3793L114.188 49.1406C114.002 49.7841 113.864 50.525 113.773 51.3633C113.699 52.2084 113.671 52.9652 113.689 53.6339C113.706 54.3995 113.767 55.1538 113.871 55.8967C113.991 56.6465 114.141 57.3982 114.318 58.1517C114.443 57.989 114.604 57.88 114.802 57.8249C115.023 57.7599 115.242 57.7717 115.459 57.8605C115.692 57.956 115.858 58.1212 115.956 58.356C116.054 58.5908 116.056 58.8248 115.96 59.058ZM111.912 65.3065C111.857 65.4398 111.761 65.556 111.623 65.6551C111.478 65.7709 111.331 65.798 111.181 65.7366C111.081 65.6957 111.008 65.5881 110.963 65.4139C110.852 65.1155 110.764 64.8072 110.7 64.4891C110.646 64.1945 110.575 63.8931 110.487 63.5848C110.309 62.8312 110.12 62.0826 109.919 61.3388C109.725 60.5784 109.507 59.8278 109.266 59.0871C109.346 59.0811 109.512 59.0808 109.763 59.0863C110.037 59.0819 110.328 59.0843 110.635 59.0936C110.942 59.1028 111.218 59.1185 111.462 59.1406C111.713 59.1461 111.863 59.159 111.913 59.1795C112.079 59.2477 112.175 59.3939 112.2 59.6181C112.251 59.8726 112.276 60.2622 112.275 60.787C112.291 61.3186 112.281 61.8884 112.246 62.4965C112.227 63.1114 112.193 63.671 112.142 64.1753C112.084 64.6963 112.007 65.0733 111.912 65.3065ZM120.328 45.7625C120.281 45.8791 120.054 46.0293 119.648 46.2131C119.265 46.387 118.814 46.5621 118.295 46.7382C117.782 46.8977 117.303 47.0224 116.857 47.1122C116.429 47.2089 116.156 47.2334 116.04 47.1856C115.906 47.131 115.87 47.0288 115.932 46.8789C115.945 46.8455 116.067 46.6911 116.297 46.4156C116.526 46.1401 116.793 45.8214 117.097 45.4596C117.424 45.088 117.718 44.7512 117.978 44.4492C118.261 44.1374 118.44 43.9383 118.514 43.852C118.797 44.065 119.084 44.2897 119.376 44.5261C119.685 44.7694 119.962 45.019 120.207 45.2751C120.277 45.3426 120.323 45.4198 120.346 45.5069C120.375 45.5774 120.369 45.6626 120.328 45.7625Z" fill="white"/>
<path d="M142.349 59.9952C141.915 61.5185 141.135 62.5129 140.01 62.9783C138.891 63.4264 137.612 63.4456 136.176 63.0359C135.587 62.8681 134.976 62.5161 134.343 61.9799C133.727 61.4486 133.157 60.8555 132.632 60.2006C132.125 59.5506 131.721 58.9673 131.419 58.4507L131.574 58.2985C131.938 58.7953 132.453 59.2883 133.118 59.7775C133.788 60.2494 134.418 60.5693 135.006 60.7371C135.681 60.9296 136.329 61.0207 136.95 61.0105C137.588 61.0052 138.141 60.8356 138.611 60.5016C139.098 60.1725 139.45 59.6271 139.667 58.8655C139.835 58.2769 139.775 57.7639 139.488 57.3264C139.201 56.8889 138.801 56.522 138.286 56.2256C137.789 55.9341 137.307 55.7217 136.839 55.5884C136.043 55.3614 135.169 55.3087 134.217 55.4303C133.288 55.5396 132.359 55.7428 131.432 56.04C130.523 56.3421 129.681 56.6355 128.907 56.9203C129.288 57.6841 129.672 58.5703 130.058 59.5788C130.444 60.5874 130.781 61.638 131.069 62.7307C131.378 63.8111 131.57 64.8766 131.645 65.9274C131.742 66.9658 131.67 67.9091 131.428 68.7572C131.265 69.3285 130.96 69.7749 130.512 70.0966C130.082 70.4232 129.564 70.5001 128.959 70.3273C128.543 70.2089 128.28 69.9185 128.168 69.4562C128.074 68.9988 128.039 68.5958 128.064 68.2472C128.086 68.1038 128.111 67.9517 128.138 67.791C128.165 67.6303 128.181 67.4757 128.186 67.3274C128.358 65.6732 128.364 64.0092 128.205 62.3354C128.046 60.6616 127.662 59.0547 127.053 57.5146C126.47 57.7226 125.878 57.9282 125.277 58.1312C124.693 58.3392 124.111 58.5756 123.53 58.8405C123.38 58.9098 123.237 58.9816 123.104 59.0558C122.971 59.1301 122.822 59.1907 122.659 59.2378C122.518 59.2725 122.335 59.3233 122.11 59.3901C121.908 59.4446 121.728 59.4497 121.572 59.4053C120.863 59.2029 120.309 58.7828 119.91 58.1451C119.534 57.4951 119.45 56.8065 119.657 56.0795C119.706 55.9064 119.805 55.6913 119.953 55.434C120.124 55.1645 120.26 54.9505 120.361 54.7922C120.403 55.1037 120.508 55.4239 120.677 55.7526C120.845 56.0814 121.094 56.2926 121.423 56.3864C121.682 56.4605 122.031 56.485 122.468 56.46C122.911 56.4178 123.378 56.3545 123.87 56.2702C124.367 56.1685 124.838 56.0595 125.283 55.9431C125.733 55.8093 126.093 55.6966 126.362 55.605C126.253 55.1996 126.091 54.8164 125.876 54.4556C125.683 54.0823 125.476 53.7239 125.256 53.3803C125.023 53.0145 124.844 52.692 124.718 52.4126C124.596 52.116 124.6 51.7427 124.728 51.2926C124.911 50.6521 125.236 50.2675 125.703 50.1387C126.175 49.9926 126.697 50.0009 127.268 50.1638C127.372 50.1934 127.468 50.249 127.557 50.3306C127.651 50.3948 127.748 50.4504 127.847 50.4973C128.01 50.5813 128.176 50.6566 128.344 50.7233C128.529 50.7949 128.706 50.864 128.874 50.9307C129.599 51.2122 130.328 51.4763 131.063 51.7232C131.797 51.9701 132.537 52.1996 133.281 52.4119C133.424 51.9099 133.391 51.4698 133.18 51.0916C132.987 50.7184 132.694 50.4008 132.301 50.1389C131.912 49.8598 131.513 49.6523 131.102 49.5165C131.495 49.2542 131.981 49.0932 132.56 49.0336C133.138 48.974 133.644 49.0058 134.077 49.1292C134.838 49.3464 135.437 49.7417 135.872 50.3151C136.33 50.8761 136.44 51.5721 136.204 52.4029C135.833 53.7012 134.973 54.1578 133.623 53.7728C133.484 53.7333 133.362 53.6703 133.256 53.5839C133.167 53.5023 133.107 53.3824 133.077 53.2242C132.387 52.8215 131.671 52.477 130.93 52.1906C130.188 51.9042 129.436 51.6524 128.674 51.4352C128.449 51.371 128.185 51.3143 127.881 51.265C127.581 51.1984 127.299 51.2022 127.035 51.2766C126.793 51.3385 126.625 51.5339 126.531 51.8628C126.486 52.0186 126.531 52.2559 126.665 52.5748C126.803 52.8764 126.974 53.1965 127.177 53.5351C127.397 53.8787 127.614 54.2025 127.827 54.5065C128.039 54.8105 128.189 55.0403 128.276 55.196C129.274 54.9755 130.38 54.7759 131.591 54.5972C132.82 54.4235 134.044 54.3326 135.262 54.3246C136.499 54.3214 137.602 54.4581 138.571 54.7345C139.384 54.9665 140.126 55.3184 140.797 55.7903C141.467 56.2622 141.954 56.8504 142.259 57.5549C142.581 58.2644 142.611 59.0778 142.349 59.9952Z" fill="white"/>
<path d="M169.655 64.2491C169.544 64.9058 169.134 65.1745 168.424 65.0551C168.3 65.0342 168.178 64.9955 168.06 64.9391C167.963 64.8679 167.853 64.813 167.732 64.7744C167.25 64.602 166.765 64.4474 166.277 64.3105C165.789 64.1737 165.296 64.0634 164.799 63.9798C164.551 63.938 164.292 63.9036 164.023 63.8765C163.774 63.8347 163.524 63.8018 163.273 63.7777C163.142 64.2303 163.008 64.7554 162.871 65.3529C162.737 65.9327 162.573 66.5258 162.38 67.1321C162.189 67.7207 161.934 68.2618 161.614 68.7555C161.314 69.2345 160.933 69.5994 160.471 69.8502C160.027 70.104 159.468 70.1742 158.793 70.0607C158.509 70.0129 158.278 69.9194 158.101 69.78C157.927 69.6229 157.868 69.3757 157.925 69.0385C158.038 68.3639 157.95 67.8016 157.661 67.3513C157.392 66.8863 157.06 66.4197 156.664 65.9516L156.731 65.8807C157.115 66.0914 157.525 66.3154 157.96 66.5528C158.415 66.7754 158.864 66.9241 159.308 66.9987C159.557 67.0405 159.767 66.9299 159.939 66.6668C160.132 66.3889 160.298 66.0518 160.438 65.6555C160.577 65.2592 160.687 64.8761 160.768 64.5063C160.848 64.1366 160.911 63.8733 160.956 63.7165C159.944 63.6558 158.914 63.7016 157.866 63.8539C156.818 64.0062 155.794 64.1807 154.794 64.3774C154.648 65.0282 154.51 65.6805 154.382 66.3343C154.254 66.9881 154.135 67.6434 154.024 68.3001C153.866 69.2409 153.893 70.003 154.105 70.5862C154.335 71.1725 154.923 71.6365 155.87 71.9782C156.437 72.1833 157.014 72.3351 157.6 72.4336C158.7 72.6188 159.806 72.6678 160.915 72.5807C161.099 72.5751 161.291 72.5709 161.493 72.5683C161.697 72.5479 161.888 72.5526 162.065 72.5824C162.686 72.687 163.232 72.9156 163.702 73.2685C164.175 73.6036 164.35 74.1351 164.228 74.8628C164.174 75.1823 163.964 75.4025 163.596 75.5232C163.229 75.644 162.791 75.6981 162.282 75.6855C161.791 75.6759 161.313 75.6411 160.849 75.5812C160.405 75.5066 160.077 75.4513 159.864 75.4155C158.887 75.2512 157.927 75.0441 156.984 74.7941C156.04 74.5441 155.186 74.1996 154.42 73.7604C153.675 73.3065 153.084 72.6961 152.647 71.929C152.21 71.1619 152.011 70.1791 152.048 68.9807C152.073 68.2913 152.142 67.6093 152.255 66.9347C152.369 66.2602 152.473 65.5842 152.569 64.9067C151.989 65.1011 151.414 65.3148 150.846 65.5477C150.28 65.7629 149.713 65.9869 149.145 66.2198C149.008 66.2699 148.883 66.3126 148.767 66.348C148.672 66.3685 148.554 66.3669 148.412 66.343C147.915 66.2594 147.469 66.0382 147.073 65.6796C146.68 65.3032 146.378 64.8692 146.169 64.3777C145.98 63.8713 145.926 63.3786 146.007 62.8993C146.028 62.775 146.059 62.6434 146.101 62.5044C146.16 62.3684 146.225 62.2516 146.297 62.154C146.551 62.4888 146.824 62.7629 147.117 62.9764C147.409 63.1899 147.769 63.3325 148.195 63.4042C148.585 63.4699 149.056 63.4943 149.606 63.4774C150.177 63.4457 150.742 63.3947 151.302 63.3246C151.882 63.2396 152.37 63.1575 152.767 63.0782C152.845 62.6167 152.913 62.1537 152.973 61.6892C153.036 61.207 153.078 60.7395 153.1 60.2867C153.142 59.7098 153.057 59.2391 152.844 58.8748C152.65 58.5135 152.243 58.2717 151.625 58.1494C151.853 57.7681 152.207 57.5082 152.687 57.3698C153.166 57.2315 153.61 57.1966 154.019 57.2653C154.356 57.3221 154.683 57.4957 154.999 57.7862C155.336 58.0619 155.6 58.3893 155.792 58.7683C156.004 59.1326 156.081 59.4923 156.021 59.8473C156.009 59.9183 155.987 59.9967 155.954 60.0825C155.942 60.1535 155.92 60.2318 155.887 60.3176C155.724 60.7464 155.571 61.1679 155.428 61.582C155.303 61.999 155.203 62.4294 155.129 62.8732C156.135 62.7504 157.137 62.6543 158.134 62.5848C159.149 62.5183 160.161 62.4695 161.171 62.4385C161.284 61.9829 161.388 61.5259 161.483 61.0674C161.579 60.6088 161.664 60.1577 161.738 59.7139C161.816 59.2524 161.866 58.7953 161.887 58.3426C161.929 57.8751 161.875 57.437 161.725 57.0285C161.574 56.6199 161.257 56.2835 160.772 56.0194C160.864 55.9071 161.028 55.7979 161.265 55.6917C161.502 55.5855 161.754 55.5001 162.02 55.4354C162.287 55.3707 162.482 55.3488 162.606 55.3697C162.943 55.4264 163.304 55.6149 163.688 55.9351C164.073 56.2552 164.384 56.6271 164.623 57.0506C164.883 57.4594 164.983 57.8413 164.923 58.1963C164.879 58.4625 164.732 58.6842 164.483 58.8614C164.346 59.459 164.209 60.0565 164.072 60.6541C163.935 61.2516 163.798 61.8492 163.661 62.4467C164.078 62.4621 164.494 62.4864 164.908 62.5196C165.325 62.535 165.744 62.5416 166.164 62.5393C166.22 62.5305 166.285 62.5232 166.359 62.5174C166.451 62.5146 166.503 62.4776 166.515 62.4066C166.494 62.3119 166.376 62.146 166.161 61.909C165.963 61.6749 165.756 61.4393 165.54 61.2023C165.325 60.9652 165.171 60.7933 165.079 60.6867L165.151 60.5891C165.381 60.7374 165.628 60.8976 165.891 61.0696C166.172 61.2446 166.448 61.3915 166.72 61.5103C167.114 61.6678 167.476 61.7926 167.807 61.8848C168.142 61.9593 168.449 62.0841 168.73 62.2591C169.032 62.4193 169.284 62.7082 169.488 63.1258C169.668 63.4664 169.723 63.8408 169.655 64.2491Z" fill="white"/>
<path d="M186.047 76.7633C186.016 77.3205 185.793 77.7678 185.377 78.1052C184.961 78.4606 184.483 78.6234 183.944 78.5934C183.405 78.5634 182.948 78.3487 182.574 77.9493C182.198 77.5679 182.026 77.0986 182.057 76.5414C182.088 75.9843 182.311 75.537 182.726 75.1995C183.142 74.8621 183.619 74.7083 184.158 74.7383C184.697 74.7683 185.155 74.974 185.53 75.3555C185.906 75.7369 186.078 76.2062 186.047 76.7633ZM187.709 59.0352C187.704 59.1251 187.69 59.2145 187.667 59.3033C187.662 59.3932 187.648 59.4826 187.625 59.5714C187.502 60.1595 187.37 60.7471 187.229 61.3342C187.09 61.9033 186.959 62.4729 186.837 63.043C186.585 64.327 186.307 65.6095 186.001 66.8905C185.696 68.1536 185.436 69.4281 185.22 70.7141C185.186 71.0007 185.134 71.2952 185.063 71.5977C185.01 71.9013 184.94 72.1948 184.852 72.4784C184.806 72.6561 184.725 72.8138 184.609 72.9516C184.512 73.0724 184.365 73.1273 184.167 73.1163C183.916 73.1023 183.752 72.976 183.675 72.7374C183.617 72.4818 183.605 72.2017 183.64 71.8972C183.675 71.5927 183.697 71.3595 183.706 71.1978C183.734 70.6945 183.744 70.1903 183.736 69.6851C183.728 69.1799 183.72 68.6747 183.712 68.1694C183.711 67.2139 183.701 66.2669 183.681 65.3283C183.662 64.3718 183.634 63.4237 183.596 62.4842C183.574 61.9061 183.534 61.327 183.476 60.7469C183.419 60.1488 183.407 59.5622 183.439 58.9871C183.525 57.4415 184.332 56.7111 185.859 56.7961C186.416 56.8271 186.871 57.0777 187.224 57.548C187.576 58.0183 187.738 58.5141 187.709 59.0352Z" fill="white"/>
<path d="M220.226 75.1739C220.262 75.8209 220.236 76.4804 220.147 77.1524C220.075 77.8054 219.853 78.3585 219.482 78.8118C219.129 79.2821 218.54 79.5403 217.713 79.5863C217.246 79.6122 216.746 79.5319 216.212 79.3452C215.68 79.1765 215.171 78.9434 214.686 78.6459C214.219 78.3474 213.815 78.0454 213.473 77.7398C213.361 77.674 213.302 77.5871 213.296 77.4793C213.293 77.4253 213.346 77.3954 213.454 77.3894C213.489 77.3874 213.526 77.3944 213.563 77.4103C213.617 77.4073 213.671 77.4133 213.726 77.4283C214.146 77.5311 214.557 77.6165 214.957 77.6843C215.359 77.7702 215.775 77.8011 216.206 77.7771C216.907 77.7382 217.327 77.5075 217.466 77.0851C217.623 76.6618 217.685 76.1625 217.653 75.5874L217.223 67.8504L207.032 68.4171L207.158 70.6816L214.168 70.2918C214.153 70.0222 214.238 69.7741 214.424 69.5474C214.609 69.3208 214.837 69.1999 215.107 69.1849C215.376 69.17 215.615 69.2558 215.824 69.4425C216.032 69.6112 216.143 69.8304 216.158 70.1C216.174 70.3875 216.089 70.6357 215.902 70.8443C215.715 71.053 215.469 71.1659 215.164 71.1829L207.211 71.6251L207.331 73.7818L214.34 73.392C214.324 73.1044 214.4 72.8478 214.568 72.6222C214.753 72.3955 214.99 72.2742 215.277 72.2582C215.565 72.2422 215.805 72.346 215.998 72.5697C216.208 72.7743 216.32 73.0115 216.335 73.2811C216.347 73.4967 216.269 73.7174 216.101 73.943C215.951 74.1497 215.758 74.2596 215.525 74.2726L207.383 74.7253L207.671 79.9013L205.272 80.0348L204.575 67.4991L219.752 66.6551L220.226 75.1739ZM224.798 63.5351C224.819 63.9125 224.709 64.2161 224.47 64.4457C224.229 64.6574 223.929 64.7732 223.57 64.7932L200.143 66.0961L200.086 65.0716L210.492 64.4929L210.373 62.3632L203.688 62.735L203.628 61.6567L210.313 61.2849L210.2 59.2361L201.33 59.7293L201.272 58.6779L210.141 58.1847L209.994 55.5428L212.582 55.3988L212.729 58.0408L219.738 57.651C219.738 57.651 219.729 57.6425 219.71 57.6255C219.709 57.6075 219.708 57.5896 219.707 57.5716C219.688 57.2301 219.807 56.9351 220.063 56.6864C220.319 56.4198 220.608 56.2775 220.932 56.2595C221.273 56.2406 221.567 56.3414 221.814 56.562C222.078 56.7637 222.219 57.0353 222.238 57.3767C222.261 57.7901 222.134 58.1036 221.858 58.3173C221.598 58.512 221.279 58.6199 220.902 58.6409L212.788 59.0921L212.9 61.114L217.887 60.8367C217.89 60.5661 217.985 60.3264 218.172 60.1178C218.375 59.8901 218.612 59.7688 218.882 59.7538C219.187 59.7368 219.445 59.8306 219.654 60.0353C219.882 60.239 220.004 60.4936 220.021 60.7991C220.037 61.0866 219.943 61.3353 219.738 61.545C219.534 61.7546 219.288 61.8675 219 61.8835L212.961 62.2193L213.08 64.349L222.3 63.8363C222.28 63.8013 222.268 63.7479 222.264 63.676C222.246 63.3525 222.356 63.058 222.593 62.7924C222.831 62.5268 223.12 62.3845 223.462 62.3655C223.785 62.3475 224.08 62.4573 224.345 62.6949C224.628 62.9136 224.779 63.1936 224.798 63.5351Z" fill="white"/>
<path d="M242.589 67.1599L236.199 68.2349L236.714 71.2969L240.176 70.7146C240.146 70.4276 240.212 70.17 240.374 69.9419C240.554 69.7108 240.786 69.5714 241.07 69.5236C241.372 69.4728 241.647 69.536 241.896 69.7132C242.16 69.8697 242.317 70.0988 242.368 70.4005C242.416 70.6845 242.341 70.9436 242.143 71.1776C241.945 71.4117 241.704 71.5526 241.42 71.6004L236.893 72.3619L237.453 75.6901L242.246 74.8839C242.814 74.7883 243.192 74.5421 243.381 74.1453C243.573 73.7662 243.626 73.3193 243.539 72.8046L242.589 67.1599ZM244.323 65.7457C243.81 65.4121 243.319 65.0385 242.847 64.6249C242.394 64.2084 241.933 63.8022 241.465 63.4064L235.874 64.347C235.617 64.883 235.35 65.4116 235.073 65.9329C234.795 66.4541 234.488 66.9621 234.152 67.4568L244.323 65.7457ZM240.709 62.3289C240.383 62.0187 240.088 61.6759 239.824 61.3004C239.557 60.9073 239.293 60.5319 239.032 60.1742L237.355 60.4564C237.19 60.8857 237.035 61.3224 236.891 61.7665C236.746 62.2106 236.572 62.6414 236.369 63.059L240.709 62.3289ZM252.83 67.3263C252.881 67.6281 252.817 67.9034 252.64 68.1522C252.46 68.3833 252.219 68.5242 251.917 68.575C251.864 68.584 251.811 68.5929 251.758 68.6019C251.701 68.5931 251.645 68.5843 251.589 68.5755C250.37 68.4886 249.236 68.2595 248.188 67.8882C247.137 67.4992 246.102 66.9888 245.083 66.3571C245.232 67.2446 245.383 68.141 245.535 69.0463C245.705 69.9486 245.865 70.8435 246.014 71.7311C246.235 73.0446 246.025 74.02 245.384 74.6572C244.763 75.3091 243.841 75.7381 242.616 75.9442L235.267 77.1804L233.762 68.0699C233.089 69.0593 232.325 69.9452 231.471 70.7278C230.632 71.4896 229.698 72.176 228.669 72.7872C228.571 72.8583 228.461 72.9044 228.336 72.9253C228.283 72.9342 228.219 72.9358 228.145 72.93C228.071 72.9242 228.028 72.8858 228.017 72.8148C228.002 72.726 228.049 72.6268 228.158 72.5172C229.236 71.3319 230.22 70.126 231.109 68.8995C232.012 67.6524 232.758 66.2767 233.344 64.7725L227.726 65.7176L227.529 64.5461L233.839 63.4845C234.007 63.0729 234.147 62.657 234.259 62.2366C234.386 61.7955 234.495 61.3574 234.586 60.9222L230.405 61.6255L230.217 60.5072L234.877 59.7233C234.959 59.3444 235.031 58.9581 235.093 58.5645C235.154 58.1708 235.207 57.7786 235.251 57.3879L227.556 58.6824L227.359 57.5109L235.373 56.1627C235.437 55.5678 235.482 54.967 235.508 54.3603C235.531 53.7359 235.546 53.1218 235.554 52.5181L238.493 52.8999C238.585 52.9027 238.642 52.9203 238.666 52.9529C238.705 52.9646 238.731 53.0149 238.746 53.1037C238.764 53.2102 238.748 53.441 238.698 53.7962C238.649 54.1514 238.592 54.5169 238.527 54.8928C238.459 55.251 238.411 55.5055 238.382 55.6565L244.506 54.6263C244.437 54.218 244.503 53.851 244.704 53.5252C244.922 53.1964 245.236 52.9976 245.644 52.9289C245.999 52.8692 246.333 52.959 246.647 53.1982C246.976 53.4167 247.17 53.7034 247.23 54.0584C247.29 54.4134 247.208 54.7376 246.983 55.0309C246.759 55.3242 246.469 55.5007 246.114 55.5604L238.179 56.8952C238.1 57.2919 238.012 57.69 237.915 58.0897C237.836 58.4863 237.737 58.8771 237.619 59.2619L243.237 58.3168C243.225 58.0269 243.31 57.7752 243.494 57.5619C243.677 57.3485 243.901 57.2195 244.168 57.1747C244.452 57.1269 244.726 57.1812 244.989 57.3376C245.253 57.4941 245.41 57.7232 245.461 58.0249C245.517 58.3622 245.445 58.639 245.244 58.8553C245.044 59.0716 244.783 59.2067 244.464 59.2604L241.615 59.7397C241.861 60.1181 242.107 60.4965 242.353 60.8749C242.614 61.2326 242.892 61.5784 243.185 61.9123L247.818 61.1329C247.782 60.8105 247.86 60.5144 248.052 60.2448C248.244 59.9753 248.5 59.8136 248.819 59.7598C249.139 59.7061 249.442 59.7737 249.729 59.9626C250.017 60.1516 250.189 60.4147 250.245 60.752C250.317 61.178 250.217 61.5051 249.945 61.7334C249.67 61.9439 249.346 62.0805 248.974 62.1432L243.995 62.9808C244.493 63.5542 245.131 64.1495 245.91 64.7668C246.69 65.3841 247.498 65.9599 248.337 66.4942C249.19 67.0078 249.961 67.4165 250.651 67.7202C250.6 67.4185 250.663 67.1432 250.841 66.8943C251.018 66.6455 251.257 66.4957 251.559 66.4449C251.861 66.3942 252.136 66.4574 252.385 66.6345C252.631 66.794 252.779 67.0246 252.83 67.3263Z" fill="white"/>
<path d="M262.97 50.9392C261.321 51.7839 260.054 52.9218 259.171 54.3529C258.304 55.7791 257.805 57.4094 257.673 59.244C257.641 59.7211 257.64 60.2082 257.669 60.7052C257.693 61.1849 257.772 61.6584 257.906 62.1258C257.989 62.42 258.128 62.7737 258.32 63.1867C258.508 63.5824 258.744 63.9175 259.028 64.1921C259.325 64.4445 259.672 64.5139 260.07 64.4004C260.365 64.3164 260.619 64.1596 260.835 63.9297C261.05 63.6999 261.237 63.4688 261.395 63.2365C261.984 62.4135 262.443 61.4964 262.772 60.4853C263.097 59.457 263.309 58.3951 263.408 57.2999C263.503 56.1873 263.508 55.0907 263.425 54.0102C263.354 52.9075 263.202 51.8838 262.97 50.9392ZM275.808 55.1961C276.212 56.6155 276.346 57.9062 276.21 59.0682C276.068 60.2129 275.597 61.4143 274.795 62.6723C274.196 63.5918 273.456 64.411 272.576 65.1301C271.708 65.8269 270.797 66.442 269.845 66.9756C269.472 67.1757 269.09 67.3782 268.699 67.5832C268.308 67.7883 267.905 67.95 267.49 68.0685C267.403 68.0931 267.35 68.0709 267.33 68.0016C267.315 67.9497 267.323 67.9101 267.352 67.8829C267.399 67.8508 267.438 67.8212 267.467 67.794C267.809 67.5469 268.155 67.3172 268.506 67.1047C268.87 66.87 269.209 66.6143 269.523 66.3375C271.227 64.897 272.307 63.2694 272.763 61.4548C273.236 59.6353 273.172 57.6697 272.57 55.5578C272.155 54.1038 271.444 52.9216 270.435 52.0112C269.422 51.0835 268.165 50.5154 266.664 50.3069C265.821 50.1729 264.993 50.222 264.179 50.4539C264.11 50.4737 264.043 50.5021 263.979 50.5391C263.91 50.5589 263.832 50.5811 263.745 50.6058C263.76 50.7887 263.775 50.9717 263.79 51.1547C263.817 51.3154 263.855 51.4823 263.904 51.6554C264.023 52.0709 264.199 52.4604 264.434 52.824C264.686 53.1826 264.871 53.5696 264.99 53.9851C265.059 54.2274 265.105 54.4858 265.127 54.7603C265.161 55.0125 265.187 55.2672 265.204 55.5243C265.29 56.8101 265.257 58.139 265.106 59.5112C264.966 60.8611 264.664 62.1639 264.199 63.4197C263.733 64.6755 263.065 65.8112 262.194 66.827C262.021 67.0074 261.837 67.1816 261.641 67.3496C261.446 67.5176 261.227 67.6362 260.985 67.7053C260.517 67.8386 260.153 67.8396 259.891 67.7085C259.641 67.555 259.44 67.3411 259.286 67.0665C259.146 66.7698 259.02 66.4594 258.909 66.1354C258.81 65.7892 258.678 65.49 258.512 65.2377C258.277 64.8741 258.029 64.6268 257.767 64.4956C257.505 64.3644 257.254 64.2394 257.014 64.1206C256.775 64.0018 256.534 63.7804 256.292 63.4564C256.049 63.1323 255.822 62.5982 255.61 61.8538C255.462 61.3345 255.405 60.7423 255.44 60.0773C255.488 59.3899 255.588 58.7904 255.742 58.2787C256.371 56.0216 257.436 54.1456 258.938 52.6505C260.434 51.1381 262.308 50.0611 264.558 49.4194C266.428 48.8863 268.173 48.7723 269.795 49.0772C271.417 49.3822 272.865 50.3262 274.14 51.9093C274.536 52.3768 274.872 52.8986 275.148 53.4749C275.42 54.0338 275.64 54.6075 275.808 55.1961Z" fill="white"/>
<path d="M288.914 53.0416C288.954 53.1415 288.871 53.3895 288.664 53.7857C288.45 54.1652 288.17 54.6205 287.823 55.1515C287.47 55.6659 287.096 56.1788 286.703 56.6902C286.326 57.1947 285.97 57.6323 285.636 58.0028C285.311 58.3498 285.082 58.5506 284.949 58.6052C284.916 58.6188 284.871 58.6276 284.814 58.6314C284.757 58.6352 284.718 58.6121 284.698 58.5622C284.664 58.4789 284.662 58.402 284.691 58.3316C284.714 58.2445 284.736 58.1574 284.759 58.0703C285.287 56.4146 285.607 54.7272 285.719 53.0082C285.833 53.0005 286.052 52.9887 286.376 52.9726C286.71 52.933 287.059 52.9067 287.423 52.8936C287.797 52.857 288.125 52.8493 288.406 52.8703C288.703 52.8845 288.873 52.9416 288.914 53.0416ZM307.101 54.4885C307.21 54.755 307.201 55.0409 307.073 55.3462C306.962 55.6446 306.765 55.8518 306.482 55.9678C306.215 56.077 305.942 56.1696 305.662 56.2455C305.382 56.3214 305.102 56.3972 304.821 56.4731C302.726 56.962 300.788 57.0267 299.007 56.6673C297.219 56.2912 295.421 55.5592 293.614 54.4712C293.369 56.3418 292.697 57.9787 291.599 59.3817C290.501 60.7848 289.221 62.029 287.76 63.1142C287.444 63.3408 287.12 63.5708 286.788 63.8043C286.479 64.0475 286.141 64.2442 285.775 64.3944C285.725 64.4149 285.651 64.4255 285.554 64.4263C285.464 64.4438 285.406 64.4192 285.378 64.3526C285.337 64.2526 285.418 64.0932 285.62 63.8742C285.839 63.6484 286.077 63.4242 286.336 63.2014C286.602 62.9952 286.77 62.8585 286.839 62.791C287.317 62.3424 287.796 61.8253 288.275 61.2397C288.772 60.6472 289.226 60.0234 289.638 59.3681C290.051 58.7128 290.368 58.0868 290.59 57.4899C290.979 56.397 291.162 55.3492 291.141 54.3466C291.119 53.344 290.975 52.3524 290.71 51.3719C290.437 50.3747 290.109 49.3613 289.726 48.3317C290.116 48.1913 290.498 48.0544 290.871 47.9209C291.261 47.7806 291.65 47.6604 292.036 47.5602C292.143 47.5359 292.245 47.5234 292.342 47.5225C292.432 47.5051 292.504 47.563 292.559 47.6962C292.75 48.1626 292.9 48.646 293.007 49.1465C293.132 49.6402 293.248 50.1372 293.356 50.6377C293.616 50.9397 293.941 51.283 294.332 51.6674C294.74 52.0451 295.161 52.4076 295.595 52.7549C296.022 53.0856 296.405 53.3565 296.745 53.5676C298.021 54.3089 299.373 54.8542 300.8 55.2032C302.243 55.5454 303.697 55.6987 305.161 55.663C305.073 55.5434 305.012 55.442 304.978 55.3587C304.855 55.0589 304.864 54.773 305.006 54.5011C305.147 54.2292 305.359 54.0352 305.642 53.9192C305.926 53.8031 306.205 53.7958 306.48 53.8971C306.771 53.9916 306.978 54.1887 307.101 54.4885ZM284.832 42.2256C284.88 42.3422 284.801 42.5785 284.597 42.9345C284.409 43.2837 284.145 43.6837 283.805 44.1345C283.481 44.5784 283.132 45.0326 282.758 45.497C282.394 45.938 282.055 46.3202 281.74 46.6437C281.435 46.9438 281.216 47.1211 281.083 47.1757C280.933 47.2371 280.837 47.2179 280.796 47.1179C280.769 47.0513 280.775 46.9226 280.813 46.7317C280.862 46.5174 280.922 46.308 280.994 46.1035C281.059 45.8823 281.097 45.7399 281.11 45.6763C281.249 45.1136 281.365 44.541 281.457 43.9586C281.549 43.3762 281.604 42.7992 281.623 42.2274C281.736 42.2198 281.955 42.2079 282.279 42.1918C282.613 42.1523 282.971 42.1225 283.352 42.1026C283.726 42.0661 284.053 42.0583 284.334 42.0793C284.632 42.0936 284.798 42.1423 284.832 42.2256ZM300.563 47.8598C300.61 47.9764 300.532 48.2127 300.328 48.5687C300.14 48.9179 299.876 49.3179 299.536 49.7687C299.212 50.2126 298.86 50.6585 298.479 51.1062C298.115 51.5471 297.776 51.9294 297.461 52.2529C297.156 52.553 296.928 52.7337 296.778 52.7951C296.745 52.8088 296.695 52.8293 296.628 52.8566C296.572 52.8604 296.53 52.829 296.502 52.7623C296.475 52.6957 296.471 52.6389 296.491 52.592C296.504 52.5283 296.517 52.4647 296.529 52.4011C296.969 50.9568 297.243 49.4436 297.354 47.8616C297.832 47.8409 298.298 47.8152 298.752 47.7847C299.223 47.7473 299.689 47.7217 300.15 47.7078C300.224 47.6971 300.304 47.7032 300.391 47.7258C300.471 47.7318 300.529 47.7765 300.563 47.8598ZM302.168 44.3716C302.27 44.6215 302.271 44.8839 302.17 45.1588C302.061 45.4171 301.882 45.5974 301.633 45.6998C301.383 45.8022 301.121 45.8996 300.848 45.9922C300.591 46.0779 300.328 46.147 300.057 46.1994C298.102 46.5534 296.259 46.5203 294.531 46.1003C292.796 45.6636 291.061 45.0129 289.325 44.1484C289.166 45.5168 288.766 46.7703 288.123 47.9089C287.491 49.0239 286.701 50.0384 285.752 50.9522C284.797 51.8493 283.778 52.6852 282.695 53.4597C282.652 53.4968 282.58 53.5359 282.48 53.5768C282.43 53.5973 282.36 53.6163 282.27 53.6337C282.173 53.6346 282.111 53.6016 282.084 53.535C282.05 53.4517 282.072 53.3646 282.152 53.2737C282.224 53.1662 282.291 53.0904 282.35 53.0464C282.884 52.4971 283.394 51.938 283.881 51.369C284.384 50.7932 284.833 50.181 285.229 49.5326C286.007 48.2024 286.499 46.9598 286.707 45.8049C286.924 44.6264 286.916 43.4432 286.682 42.2552C286.465 41.0604 286.097 39.7815 285.577 38.4188C286.024 38.2746 286.482 38.1354 286.952 38.0011C287.423 37.8668 287.881 37.7276 288.328 37.5834C288.51 38.1702 288.684 38.7604 288.849 39.354C289.014 39.9476 289.143 40.5465 289.235 41.1508C289.848 41.6972 290.608 42.2223 291.515 42.7261C292.414 43.2133 293.383 43.6531 294.419 44.0455C295.448 44.4213 296.467 44.7236 297.475 44.9525C298.493 45.1579 299.413 45.2672 300.235 45.2803C300.119 44.9972 300.1 44.7132 300.178 44.4284C300.249 44.127 300.443 43.9114 300.759 43.7818C301.042 43.6657 301.316 43.6701 301.581 43.7949C301.856 43.8963 302.052 44.0885 302.168 44.3716ZM296.313 37.346C296.368 37.4793 296.293 37.7239 296.088 38.08C295.901 38.4292 295.637 38.8291 295.296 39.2799C294.972 39.7239 294.628 40.1663 294.264 40.6072C293.9 41.0482 293.561 41.4304 293.246 41.7539C292.941 42.054 292.714 42.2347 292.564 42.2961C292.514 42.3166 292.452 42.3322 292.379 42.3428C292.322 42.3466 292.28 42.3152 292.253 42.2486C292.225 42.182 292.218 42.1169 292.231 42.0533C292.26 41.9828 292.285 41.9241 292.305 41.8771C292.744 40.4328 293.019 38.9196 293.129 37.3376C293.243 37.33 293.458 37.3098 293.775 37.2771C294.109 37.2375 294.458 37.2112 294.823 37.1981C295.197 37.1615 295.524 37.1538 295.805 37.1748C296.103 37.189 296.272 37.2461 296.313 37.346Z" fill="white"/>
</svg>
